<?xml version="1.0" encoding="UTF-8" standalone="no" ?>
<!DOCTYPE svg PUBLIC "-//W3C//DTD SVG 1.1//EN" "http://www.w3.org/Graphics/SVG/1.1/DTD/svg11.dtd">
<svg xmlns="http://www.w3.org/2000/svg" xmlns:xlink="http://www.w3.org/1999/xlink" version="1.1" width="100px" height="100px" viewBox="0 0 1080 1080" xml:space="preserve">
<desc>Created with Fabric.js 5.2.4</desc>
<defs>
</defs>
<rect x="0" y="0" width="100%" height="100%" fill="transparent"></rect>
<g transform="matrix(1 0 0 1 540 540)" id="92c83e48-61f2-4ebf-8760-2f76f1775155"  >
<rect style="stroke: none; stroke-width: 1; stroke-dasharray: none; stroke-linecap: butt; stroke-dashoffset: 0; stroke-linejoin: miter; stroke-miterlimit: 4; fill: rgb(255,255,255); fill-rule: nonzero; opacity: 1; visibility: hidden;" vector-effect="non-scaling-stroke"  x="-540" y="-540" rx="0" ry="0" width="1080" height="1080" />
</g>
<g transform="matrix(1 0 0 1 540 540)" id="db387036-fd84-4727-8010-eb5b92516bf5"  >
</g>
<g transform="matrix(0.45 0 0 1.31 111.93 540.55)"  >
<g style="" vector-effect="non-scaling-stroke"   >
		<g transform="matrix(1.56 0 0 1.56 0 240)"  >
<path style="stroke: none; stroke-width: 1; stroke-dasharray: none; stroke-linecap: butt; stroke-dashoffset: 0; stroke-linejoin: miter; stroke-miterlimit: 4; fill: rgb(255,225,0); fill-rule: nonzero; opacity: 1;" vector-effect="non-scaling-stroke"  transform=" translate(-255, -408.6)" d="M 339.48 434.2 L 171.373 434.2 C 165.39999999999998 434.2 161.13299999999998 429.933 161.13299999999998 424.813 L 161.13299999999998 393.24 C 161.13299999999998 387.267 165.39999999999998 383 171.373 383 L 339.48 383 C 344.6 383 348.867 387.267 348.867 392.387 L 348.867 423.96 C 348.867 429.933 344.6 434.2 339.48 434.2" stroke-linecap="round" />
</g>
		<g transform="matrix(1.56 0 0 1.56 0 333.33)"  >
<path style="stroke: none; stroke-width: 1; stroke-dasharray: none; stroke-linecap: butt; stroke-dashoffset: 0; stroke-linejoin: miter; stroke-miterlimit: 4; fill: rgb(255,225,0); fill-rule: nonzero; opacity: 1;" vector-effect="non-scaling-stroke"  transform=" translate(-255, -468.33)" d="M 305.347 502.467 L 205.50699999999998 502.467 C 199.53399999999996 502.467 195.26699999999997 498.2 195.26699999999997 493.08 L 195.26699999999997 434.2 L 314.734 434.2 L 314.734 493.08 C 314.733 498.2 310.467 502.467 305.347 502.467" stroke-linecap="round" />
</g>
		<g transform="matrix(1.56 0 0 1.56 0 0)"  >
<polygon style="stroke: none; stroke-width: 1; stroke-dasharray: none; stroke-linecap: butt; stroke-dashoffset: 0; stroke-linejoin: miter; stroke-miterlimit: 4; fill: rgb(255,225,0); fill-rule: nonzero; opacity: 1;" vector-effect="non-scaling-stroke"  points="-59.73,128 59.73,128 59.73,-128 -59.73,-128 " />
</g>
		<g transform="matrix(1.56 0 0 1.56 73.33 0)"  >
<polygon style="stroke: none; stroke-width: 1; stroke-dasharray: none; stroke-linecap: butt; stroke-dashoffset: 0; stroke-linejoin: miter; stroke-miterlimit: 4; fill: rgb(255,168,0); fill-rule: nonzero; opacity: 1;" vector-effect="non-scaling-stroke"  points="-12.8,128 12.8,128 12.8,-128 -12.8,-128 " />
</g>
		<g transform="matrix(1.56 0 0 1.56 -73.33 0)"  >
<polygon style="stroke: none; stroke-width: 1; stroke-dasharray: none; stroke-linecap: butt; stroke-dashoffset: 0; stroke-linejoin: miter; stroke-miterlimit: 4; fill: rgb(255,255,255); fill-rule: nonzero; opacity: 1;" vector-effect="non-scaling-stroke"  points="-12.8,128 12.8,128 12.8,-128 -12.8,-128 " />
</g>
		<g transform="matrix(1.56 0 0 1.56 0 -333.33)"  >
<path style="stroke: none; stroke-width: 1; stroke-dasharray: none; stroke-linecap: butt; stroke-dashoffset: 0; stroke-linejoin: miter; stroke-miterlimit: 4; fill: rgb(255,225,0); fill-rule: nonzero; opacity: 1;" vector-effect="non-scaling-stroke"  transform=" translate(-255, -41.67)" d="M 314.733 75.8 L 195.267 75.8 L 195.267 16.92 C 195.267 11.8 199.534 7.533000000000001 205.507 7.533000000000001 L 305.347 7.533000000000001 C 310.467 7.533000000000001 314.734 11.8 314.734 16.92 L 314.734 75.8 z" stroke-linecap="round" />
</g>
		<g transform="matrix(1.56 0 0 1.56 66 -333.33)"  >
<path style="stroke: none; stroke-width: 1; stroke-dasharray: none; stroke-linecap: butt; stroke-dashoffset: 0; stroke-linejoin: miter; stroke-miterlimit: 4; fill: rgb(255,168,0); fill-rule: nonzero; opacity: 1;" vector-effect="non-scaling-stroke"  transform=" translate(-297.24, -41.67)" d="M 305.347 7.533 L 279.74699999999996 7.533 C 284.86699999999996 7.533 289.13399999999996 11.8 289.13399999999996 16.92 L 289.13399999999996 75.8 L 314.734 75.8 L 314.734 16.92 C 314.733 11.8 310.467 7.533 305.347 7.533" stroke-linecap="round" />
</g>
		<g transform="matrix(1.56 0 0 1.56 -65.33 -333.33)"  >
<path style="stroke: none; stroke-width: 1; stroke-dasharray: none; stroke-linecap: butt; stroke-dashoffset: 0; stroke-linejoin: miter; stroke-miterlimit: 4; fill: rgb(255,255,255); fill-rule: nonzero; opacity: 1;" vector-effect="non-scaling-stroke"  transform=" translate(-213.19, -41.67)" d="M 205.507 7.533 L 231.107 7.533 C 225.134 7.533 220.867 11.8 220.867 16.92 L 220.867 75.8 L 195.267 75.8 L 195.267 16.92 C 195.267 11.8 199.533 7.533 205.507 7.533" stroke-linecap="round" />
</g>
		<g transform="matrix(1.56 0 0 1.56 66 333.33)"  >
<path style="stroke: none; stroke-width: 1; stroke-dasharray: none; stroke-linecap: butt; stroke-dashoffset: 0; stroke-linejoin: miter; stroke-miterlimit: 4; fill: rgb(255,168,0); fill-rule: nonzero; opacity: 1;" vector-effect="non-scaling-stroke"  transform=" translate(-297.24, -468.33)" d="M 305.347 502.467 L 279.74699999999996 502.467 C 284.86699999999996 502.467 289.13399999999996 498.2 289.13399999999996 493.08 L 289.13399999999996 434.2 L 314.734 434.2 L 314.734 493.08 C 314.733 498.2 310.467 502.467 305.347 502.467" stroke-linecap="round" />
</g>
		<g transform="matrix(1.56 0 0 1.56 -65.33 333.33)"  >
<path style="stroke: none; stroke-width: 1; stroke-dasharray: none; stroke-linecap: butt; stroke-dashoffset: 0; stroke-linejoin: miter; stroke-miterlimit: 4; fill: rgb(255,255,255); fill-rule: nonzero; opacity: 1;" vector-effect="non-scaling-stroke"  transform=" translate(-213.19, -468.33)" d="M 205.507 502.467 L 231.107 502.467 C 225.134 502.467 220.867 498.2 220.867 493.08 L 220.867 434.2 L 195.267 434.2 L 195.267 493.08 C 195.267 498.2 199.533 502.467 205.507 502.467" stroke-linecap="round" />
</g>
		<g transform="matrix(1.56 0 0 1.56 0 -240)"  >
<path style="stroke: none; stroke-width: 1; stroke-dasharray: none; stroke-linecap: butt; stroke-dashoffset: 0; stroke-linejoin: miter; stroke-miterlimit: 4; fill: rgb(255,225,0); fill-rule: nonzero; opacity: 1;" vector-effect="non-scaling-stroke"  transform=" translate(-255, -101.4)" d="M 339.48 127 L 171.373 127 C 165.39999999999998 127 161.13299999999998 122.733 161.13299999999998 117.613 L 161.13299999999998 85.187 C 161.13299999999998 80.067 165.39999999999998 75.8 171.373 75.8 L 339.48 75.8 C 344.6 75.8 348.867 80.067 348.867 85.187 L 348.867 116.75999999999999 C 348.867 122.733 344.6 127 339.48 127" stroke-linecap="round" />
</g>
		<g transform="matrix(1.56 0 0 1.56 119.33 -240.67)"  >
<path style="stroke: none; stroke-width: 1; stroke-dasharray: none; stroke-linecap: butt; stroke-dashoffset: 0; stroke-linejoin: miter; stroke-miterlimit: 4; fill: rgb(255,168,0); fill-rule: nonzero; opacity: 1;" vector-effect="non-scaling-stroke"  transform=" translate(-331.37, -100.97)" d="M 339.48 75.8 L 313.88 75.8 C 319 75.8 323.267 80.067 323.267 85.187 L 323.267 116.75999999999999 C 323.267 121.88 319 126.14699999999999 313.88 126.14699999999999 L 339.48 126.14699999999999 C 344.6 126.14699999999999 348.867 121.88 348.867 116.75999999999999 L 348.867 85.187 C 348.867 80.067 344.6 75.8 339.48 75.8" stroke-linecap="round" />
</g>
		<g transform="matrix(1.56 0 0 1.56 -118.67 -240)"  >
<path style="stroke: none; stroke-width: 1; stroke-dasharray: none; stroke-linecap: butt; stroke-dashoffset: 0; stroke-linejoin: miter; stroke-miterlimit: 4; fill: rgb(255,255,255); fill-rule: nonzero; opacity: 1;" vector-effect="non-scaling-stroke"  transform=" translate(-179.05, -101.4)" d="M 171.373 75.8 L 196.97299999999998 75.8 C 190.99999999999997 75.8 186.73299999999998 80.067 186.73299999999998 85.187 L 186.73299999999998 116.75999999999999 C 186.73299999999998 122.73299999999999 190.99999999999997 126.99999999999999 196.97299999999998 126.99999999999999 L 171.373 126.99999999999999 C 165.39999999999998 126.99999999999999 161.13299999999998 122.73299999999999 161.13299999999998 117.61299999999999 L 161.13299999999998 85.187 C 161.133 80.067 165.4 75.8 171.373 75.8" stroke-linecap="round" />
</g>
		<g transform="matrix(1.56 0 0 1.56 119.33 239.33)"  >
<path style="stroke: none; stroke-width: 1; stroke-dasharray: none; stroke-linecap: butt; stroke-dashoffset: 0; stroke-linejoin: miter; stroke-miterlimit: 4; fill: rgb(255,168,0); fill-rule: nonzero; opacity: 1;" vector-effect="non-scaling-stroke"  transform=" translate(-331.37, -408.17)" d="M 339.48 383 L 313.88 383 C 319 383 323.267 387.267 323.267 392.387 L 323.267 423.96 C 323.267 429.08 319 433.347 313.88 433.347 L 339.48 433.347 C 344.6 433.347 348.867 429.08 348.867 423.96 L 348.867 392.387 C 348.867 387.267 344.6 383 339.48 383" stroke-linecap="round" />
</g>
		<g transform="matrix(1.56 0 0 1.56 -118.67 240)"  >
<path style="stroke: none; stroke-width: 1; stroke-dasharray: none; stroke-linecap: butt; stroke-dashoffset: 0; stroke-linejoin: miter; stroke-miterlimit: 4; fill: rgb(255,255,255); fill-rule: nonzero; opacity: 1;" vector-effect="non-scaling-stroke"  transform=" translate(-179.05, -408.6)" d="M 171.373 383 L 196.97299999999998 383 C 190.99999999999997 383 186.73299999999998 387.267 186.73299999999998 392.387 L 186.73299999999998 423.96 C 186.73299999999998 429.933 190.99999999999997 434.2 196.97299999999998 434.2 L 171.373 434.2 C 165.39999999999998 434.2 161.13299999999998 429.933 161.13299999999998 424.813 L 161.13299999999998 393.24 C 161.133 387.267 165.4 383 171.373 383" stroke-linecap="round" />
</g>
		<g transform="matrix(1.56 0 0 1.56 0 333.33)"  >
<path style="stroke: none; stroke-width: 1; stroke-dasharray: none; stroke-linecap: butt; stroke-dashoffset: 0; stroke-linejoin: miter; stroke-miterlimit: 4; fill: rgb(0,0,0); fill-rule: nonzero; opacity: 1;" vector-effect="non-scaling-stroke"  transform=" translate(-255, -468.33)" d="M 305.347 511 L 205.50699999999998 511 C 195.26699999999997 511 186.73399999999998 502.467 186.73399999999998 493.08 L 186.73399999999998 425.667 L 323.26699999999994 425.667 L 323.26699999999994 493.08 C 323.267 502.467 315.587 511 305.347 511 z M 203.8 442.733 L 203.8 493.08 C 203.8 493.08 204.65300000000002 493.933 205.507 493.933 L 305.347 493.933 C 306.2 493.933 306.2 493.08 306.2 493.08 L 306.2 442.733 L 203.8 442.733 z" stroke-linecap="round" />
</g>
		<g transform="matrix(1.56 0 0 1.56 0 0)"  >
<path style="stroke: none; stroke-width: 1; stroke-dasharray: none; stroke-linecap: butt; stroke-dashoffset: 0; stroke-linejoin: miter; stroke-miterlimit: 4; fill: rgb(0,0,0); fill-rule: nonzero; opacity: 1;" vector-effect="non-scaling-stroke"  transform=" translate(-255, -255)" d="M 323.267 391.533 L 186.733 391.533 L 186.733 118.467 L 323.26599999999996 118.467 L 323.26599999999996 391.533 z M 203.8 374.467 L 306.20000000000005 374.467 L 306.20000000000005 135.533 L 203.8 135.533 L 203.8 374.467 z" stroke-linecap="round" />
</g>
		<g transform="matrix(1.56 0 0 1.56 0 -333.33)"  >
<path style="stroke: none; stroke-width: 1; stroke-dasharray: none; stroke-linecap: butt; stroke-dashoffset: 0; stroke-linejoin: miter; stroke-miterlimit: 4; fill: rgb(0,0,0); fill-rule: nonzero; opacity: 1;" vector-effect="non-scaling-stroke"  transform=" translate(-255, -41.67)" d="M 323.267 84.333 L 186.733 84.333 L 186.733 16.92 C 186.733 7.533000000000001 195.266 -1 205.506 -1 L 305.346 -1 C 315.586 -1 323.266 7.5329999999999995 323.266 16.92 L 323.266 84.333 z M 203.8 67.267 L 306.20000000000005 67.267 L 306.20000000000005 16.92 C 306.20000000000005 16.92 306.20000000000005 16.067 305.34700000000004 16.067 L 205.50700000000003 16.067 C 204.65400000000002 16.067 203.80000000000004 16.92 203.80000000000004 16.92 L 203.80000000000004 67.267 z" stroke-linecap="round" />
</g>
		<g transform="matrix(1.56 0 0 1.56 0 -240)"  >
<path style="stroke: none; stroke-width: 1; stroke-dasharray: none; stroke-linecap: butt; stroke-dashoffset: 0; stroke-linejoin: miter; stroke-miterlimit: 4; fill: rgb(0,0,0); fill-rule: nonzero; opacity: 1;" vector-effect="non-scaling-stroke"  transform=" translate(-255, -101.4)" d="M 339.48 135.533 L 171.373 135.533 C 161.13299999999998 135.533 152.6 126.99999999999999 152.6 117.61299999999999 L 152.6 85.187 C 152.6 75.8 161.13299999999998 67.267 171.373 67.267 L 339.48 67.267 C 349.72 67.267 357.40000000000003 75.8 357.40000000000003 85.187 L 357.40000000000003 116.75999999999999 C 357.4 127 349.72 135.533 339.48 135.533 z M 171.373 84.333 C 170.51999999999998 84.333 169.666 85.18599999999999 169.666 85.18599999999999 L 169.666 116.75899999999999 C 169.666 117.61199999999998 170.519 118.46599999999998 171.373 118.46599999999998 L 339.48 118.46599999999998 C 340.333 118.46599999999998 340.333 117.61299999999999 340.333 117.61299999999999 L 340.333 85.187 C 340.333 85.187 340.333 84.334 339.48 84.334 L 171.373 84.334 z" stroke-linecap="round" />
</g>
		<g transform="matrix(1.56 0 0 1.56 0 240)"  >
<path style="stroke: none; stroke-width: 1; stroke-dasharray: none; stroke-linecap: butt; stroke-dashoffset: 0; stroke-linejoin: miter; stroke-miterlimit: 4; fill: rgb(0,0,0); fill-rule: nonzero; opacity: 1;" vector-effect="non-scaling-stroke"  transform=" translate(-255, -408.6)" d="M 339.48 442.733 L 171.373 442.733 C 161.13299999999998 442.733 152.6 434.2 152.6 424.813 L 152.6 393.24 C 152.6 383 161.13299999999998 374.467 171.373 374.467 L 339.48 374.467 C 349.72 374.467 357.40000000000003 383 357.40000000000003 392.387 L 357.40000000000003 423.96 C 357.4 434.2 349.72 442.733 339.48 442.733 z M 171.373 391.533 C 170.51999999999998 391.533 169.666 392.386 169.666 392.386 L 169.666 423.959 C 169.666 424.812 170.519 425.666 171.373 425.666 L 339.48 425.666 C 340.333 425.666 340.333 424.813 340.333 424.813 L 340.333 393.24 C 340.333 392.387 339.48 392.387 339.48 392.387 L 171.373 392.387 L 171.373 391.533 z" stroke-linecap="round" />
</g>
</g>
</g>
<g transform="matrix(0.46 0 0 1.31 282.47 539.59)"  >
<g style="" vector-effect="non-scaling-stroke"   >
		<g transform="matrix(1.56 0 0 1.56 -0.24 239.94)"  >
<path style="stroke: none; stroke-width: 1; stroke-dasharray: none; stroke-linecap: butt; stroke-dashoffset: 0; stroke-linejoin: miter; stroke-miterlimit: 4; fill: rgb(255,225,0); fill-rule: nonzero; opacity: 1;" vector-effect="non-scaling-stroke"  transform=" translate(-255, -408.6)" d="M 339.48 434.2 L 171.373 434.2 C 165.39999999999998 434.2 161.13299999999998 429.933 161.13299999999998 424.813 L 161.13299999999998 393.24 C 161.13299999999998 387.267 165.39999999999998 383 171.373 383 L 339.48 383 C 344.6 383 348.867 387.267 348.867 392.387 L 348.867 423.96 C 348.867 429.933 344.6 434.2 339.48 434.2" stroke-linecap="round" />
</g>
		<g transform="matrix(1.56 0 0 1.56 -0.15 333.25)"  >
<path style="stroke: none; stroke-width: 1; stroke-dasharray: none; stroke-linecap: butt; stroke-dashoffset: 0; stroke-linejoin: miter; stroke-miterlimit: 4; fill: rgb(255,225,0); fill-rule: nonzero; opacity: 1;" vector-effect="non-scaling-stroke"  transform=" translate(-255, -468.33)" d="M 305.347 502.467 L 205.50699999999998 502.467 C 199.53399999999996 502.467 195.26699999999997 498.2 195.26699999999997 493.08 L 195.26699999999997 434.2 L 314.734 434.2 L 314.734 493.08 C 314.733 498.2 310.467 502.467 305.347 502.467" stroke-linecap="round" />
</g>
		<g transform="matrix(1.56 0 0 1.56 -0.15 -0.32)"  >
<polygon style="stroke: none; stroke-width: 1; stroke-dasharray: none; stroke-linecap: butt; stroke-dashoffset: 0; stroke-linejoin: miter; stroke-miterlimit: 4; fill: rgb(255,225,0); fill-rule: nonzero; opacity: 1;" vector-effect="non-scaling-stroke"  points="-59.73,128 59.73,128 59.73,-128 -59.73,-128 " />
</g>
		<g transform="matrix(1.56 0 0 1.56 73.3 -0.32)"  >
<polygon style="stroke: none; stroke-width: 1; stroke-dasharray: none; stroke-linecap: butt; stroke-dashoffset: 0; stroke-linejoin: miter; stroke-miterlimit: 4; fill: rgb(255,168,0); fill-rule: nonzero; opacity: 1;" vector-effect="non-scaling-stroke"  points="-12.8,128 12.8,128 12.8,-128 -12.8,-128 " />
</g>
		<g transform="matrix(1.56 0 0 1.56 -73.36 -0.32)"  >
<polygon style="stroke: none; stroke-width: 1; stroke-dasharray: none; stroke-linecap: butt; stroke-dashoffset: 0; stroke-linejoin: miter; stroke-miterlimit: 4; fill: rgb(255,255,255); fill-rule: nonzero; opacity: 1;" vector-effect="non-scaling-stroke"  points="-12.8,128 12.8,128 12.8,-128 -12.8,-128 " />
</g>
		<g transform="matrix(1.56 0 0 1.56 -0.15 -333.42)"  >
<path style="stroke: none; stroke-width: 1; stroke-dasharray: none; stroke-linecap: butt; stroke-dashoffset: 0; stroke-linejoin: miter; stroke-miterlimit: 4; fill: rgb(255,225,0); fill-rule: nonzero; opacity: 1;" vector-effect="non-scaling-stroke"  transform=" translate(-255, -41.67)" d="M 314.733 75.8 L 195.267 75.8 L 195.267 16.92 C 195.267 11.8 199.534 7.533000000000001 205.507 7.533000000000001 L 305.347 7.533000000000001 C 310.467 7.533000000000001 314.734 11.8 314.734 16.92 L 314.734 75.8 z" stroke-linecap="round" />
</g>
		<g transform="matrix(1.56 0 0 1.56 65.96 -333.42)"  >
<path style="stroke: none; stroke-width: 1; stroke-dasharray: none; stroke-linecap: butt; stroke-dashoffset: 0; stroke-linejoin: miter; stroke-miterlimit: 4; fill: rgb(255,168,0); fill-rule: nonzero; opacity: 1;" vector-effect="non-scaling-stroke"  transform=" translate(-297.24, -41.67)" d="M 305.347 7.533 L 279.74699999999996 7.533 C 284.86699999999996 7.533 289.13399999999996 11.8 289.13399999999996 16.92 L 289.13399999999996 75.8 L 314.734 75.8 L 314.734 16.92 C 314.733 11.8 310.467 7.533 305.347 7.533" stroke-linecap="round" />
</g>
		<g transform="matrix(1.56 0 0 1.56 -65.37 -333.42)"  >
<path style="stroke: none; stroke-width: 1; stroke-dasharray: none; stroke-linecap: butt; stroke-dashoffset: 0; stroke-linejoin: miter; stroke-miterlimit: 4; fill: rgb(255,255,255); fill-rule: nonzero; opacity: 1;" vector-effect="non-scaling-stroke"  transform=" translate(-213.19, -41.67)" d="M 205.507 7.533 L 231.107 7.533 C 225.134 7.533 220.867 11.8 220.867 16.92 L 220.867 75.8 L 195.267 75.8 L 195.267 16.92 C 195.267 11.8 199.533 7.533 205.507 7.533" stroke-linecap="round" />
</g>
		<g transform="matrix(1.56 0 0 1.56 65.96 333.25)"  >
<path style="stroke: none; stroke-width: 1; stroke-dasharray: none; stroke-linecap: butt; stroke-dashoffset: 0; stroke-linejoin: miter; stroke-miterlimit: 4; fill: rgb(255,168,0); fill-rule: nonzero; opacity: 1;" vector-effect="non-scaling-stroke"  transform=" translate(-297.24, -468.33)" d="M 305.347 502.467 L 279.74699999999996 502.467 C 284.86699999999996 502.467 289.13399999999996 498.2 289.13399999999996 493.08 L 289.13399999999996 434.2 L 314.734 434.2 L 314.734 493.08 C 314.733 498.2 310.467 502.467 305.347 502.467" stroke-linecap="round" />
</g>
		<g transform="matrix(1.56 0 0 1.56 -65.37 333.25)"  >
<path style="stroke: none; stroke-width: 1; stroke-dasharray: none; stroke-linecap: butt; stroke-dashoffset: 0; stroke-linejoin: miter; stroke-miterlimit: 4; fill: rgb(255,255,255); fill-rule: nonzero; opacity: 1;" vector-effect="non-scaling-stroke"  transform=" translate(-213.19, -468.33)" d="M 205.507 502.467 L 231.107 502.467 C 225.134 502.467 220.867 498.2 220.867 493.08 L 220.867 434.2 L 195.267 434.2 L 195.267 493.08 C 195.267 498.2 199.533 502.467 205.507 502.467" stroke-linecap="round" />
</g>
		<g transform="matrix(1.56 0 0 1.56 -0.24 -240.06)"  >
<path style="stroke: none; stroke-width: 1; stroke-dasharray: none; stroke-linecap: butt; stroke-dashoffset: 0; stroke-linejoin: miter; stroke-miterlimit: 4; fill: rgb(255,225,0); fill-rule: nonzero; opacity: 1;" vector-effect="non-scaling-stroke"  transform=" translate(-255, -101.4)" d="M 339.48 127 L 171.373 127 C 165.39999999999998 127 161.13299999999998 122.733 161.13299999999998 117.613 L 161.13299999999998 85.187 C 161.13299999999998 80.067 165.39999999999998 75.8 171.373 75.8 L 339.48 75.8 C 344.6 75.8 348.867 80.067 348.867 85.187 L 348.867 116.75999999999999 C 348.867 122.733 344.6 127 339.48 127" stroke-linecap="round" />
</g>
		<g transform="matrix(1.56 0 0 1.56 119.29 -240.73)"  >
<path style="stroke: none; stroke-width: 1; stroke-dasharray: none; stroke-linecap: butt; stroke-dashoffset: 0; stroke-linejoin: miter; stroke-miterlimit: 4; fill: rgb(255,168,0); fill-rule: nonzero; opacity: 1;" vector-effect="non-scaling-stroke"  transform=" translate(-331.37, -100.97)" d="M 339.48 75.8 L 313.88 75.8 C 319 75.8 323.267 80.067 323.267 85.187 L 323.267 116.75999999999999 C 323.267 121.88 319 126.14699999999999 313.88 126.14699999999999 L 339.48 126.14699999999999 C 344.6 126.14699999999999 348.867 121.88 348.867 116.75999999999999 L 348.867 85.187 C 348.867 80.067 344.6 75.8 339.48 75.8" stroke-linecap="round" />
</g>
		<g transform="matrix(1.56 0 0 1.56 -118.71 -240.06)"  >
<path style="stroke: none; stroke-width: 1; stroke-dasharray: none; stroke-linecap: butt; stroke-dashoffset: 0; stroke-linejoin: miter; stroke-miterlimit: 4; fill: rgb(255,255,255); fill-rule: nonzero; opacity: 1;" vector-effect="non-scaling-stroke"  transform=" translate(-179.05, -101.4)" d="M 171.373 75.8 L 196.97299999999998 75.8 C 190.99999999999997 75.8 186.73299999999998 80.067 186.73299999999998 85.187 L 186.73299999999998 116.75999999999999 C 186.73299999999998 122.73299999999999 190.99999999999997 126.99999999999999 196.97299999999998 126.99999999999999 L 171.373 126.99999999999999 C 165.39999999999998 126.99999999999999 161.13299999999998 122.73299999999999 161.13299999999998 117.61299999999999 L 161.13299999999998 85.187 C 161.133 80.067 165.4 75.8 171.373 75.8" stroke-linecap="round" />
</g>
		<g transform="matrix(1.56 0 0 1.56 119.29 239.27)"  >
<path style="stroke: none; stroke-width: 1; stroke-dasharray: none; stroke-linecap: butt; stroke-dashoffset: 0; stroke-linejoin: miter; stroke-miterlimit: 4; fill: rgb(255,168,0); fill-rule: nonzero; opacity: 1;" vector-effect="non-scaling-stroke"  transform=" translate(-331.37, -408.17)" d="M 339.48 383 L 313.88 383 C 319 383 323.267 387.267 323.267 392.387 L 323.267 423.96 C 323.267 429.08 319 433.347 313.88 433.347 L 339.48 433.347 C 344.6 433.347 348.867 429.08 348.867 423.96 L 348.867 392.387 C 348.867 387.267 344.6 383 339.48 383" stroke-linecap="round" />
</g>
		<g transform="matrix(1.56 0 0 1.56 -118.71 239.94)"  >
<path style="stroke: none; stroke-width: 1; stroke-dasharray: none; stroke-linecap: butt; stroke-dashoffset: 0; stroke-linejoin: miter; stroke-miterlimit: 4; fill: rgb(255,255,255); fill-rule: nonzero; opacity: 1;" vector-effect="non-scaling-stroke"  transform=" translate(-179.05, -408.6)" d="M 171.373 383 L 196.97299999999998 383 C 190.99999999999997 383 186.73299999999998 387.267 186.73299999999998 392.387 L 186.73299999999998 423.96 C 186.73299999999998 429.933 190.99999999999997 434.2 196.97299999999998 434.2 L 171.373 434.2 C 165.39999999999998 434.2 161.13299999999998 429.933 161.13299999999998 424.813 L 161.13299999999998 393.24 C 161.133 387.267 165.4 383 171.373 383" stroke-linecap="round" />
</g>
		<g transform="matrix(1.56 0 0 1.56 -0.17 333.23)"  >
<path style="stroke: none; stroke-width: 1; stroke-dasharray: none; stroke-linecap: butt; stroke-dashoffset: 0; stroke-linejoin: miter; stroke-miterlimit: 4; fill: rgb(0,0,0); fill-rule: nonzero; opacity: 1;" vector-effect="non-scaling-stroke"  transform=" translate(-255, -468.33)" d="M 305.347 511 L 205.50699999999998 511 C 195.26699999999997 511 186.73399999999998 502.467 186.73399999999998 493.08 L 186.73399999999998 425.667 L 323.26699999999994 425.667 L 323.26699999999994 493.08 C 323.267 502.467 315.587 511 305.347 511 z M 203.8 442.733 L 203.8 493.08 C 203.8 493.08 204.65300000000002 493.933 205.507 493.933 L 305.347 493.933 C 306.2 493.933 306.2 493.08 306.2 493.08 L 306.2 442.733 L 203.8 442.733 z" stroke-linecap="round" />
</g>
		<g transform="matrix(1.56 0 0 1.56 -0.17 -0.34)"  >
<path style="stroke: none; stroke-width: 1; stroke-dasharray: none; stroke-linecap: butt; stroke-dashoffset: 0; stroke-linejoin: miter; stroke-miterlimit: 4; fill: rgb(0,0,0); fill-rule: nonzero; opacity: 1;" vector-effect="non-scaling-stroke"  transform=" translate(-255, -255)" d="M 323.267 391.533 L 186.733 391.533 L 186.733 118.467 L 323.26599999999996 118.467 L 323.26599999999996 391.533 z M 203.8 374.467 L 306.20000000000005 374.467 L 306.20000000000005 135.533 L 203.8 135.533 L 203.8 374.467 z" stroke-linecap="round" />
</g>
		<g transform="matrix(1.56 0 0 1.56 -0.17 -333.44)"  >
<path style="stroke: none; stroke-width: 1; stroke-dasharray: none; stroke-linecap: butt; stroke-dashoffset: 0; stroke-linejoin: miter; stroke-miterlimit: 4; fill: rgb(0,0,0); fill-rule: nonzero; opacity: 1;" vector-effect="non-scaling-stroke"  transform=" translate(-255, -41.67)" d="M 323.267 84.333 L 186.733 84.333 L 186.733 16.92 C 186.733 7.533000000000001 195.266 -1 205.506 -1 L 305.346 -1 C 315.586 -1 323.266 7.5329999999999995 323.266 16.92 L 323.266 84.333 z M 203.8 67.267 L 306.20000000000005 67.267 L 306.20000000000005 16.92 C 306.20000000000005 16.92 306.20000000000005 16.067 305.34700000000004 16.067 L 205.50700000000003 16.067 C 204.65400000000002 16.067 203.80000000000004 16.92 203.80000000000004 16.92 L 203.80000000000004 67.267 z" stroke-linecap="round" />
</g>
		<g transform="matrix(1.56 0 0 1.56 -0.26 -240.08)"  >
<path style="stroke: none; stroke-width: 1; stroke-dasharray: none; stroke-linecap: butt; stroke-dashoffset: 0; stroke-linejoin: miter; stroke-miterlimit: 4; fill: rgb(0,0,0); fill-rule: nonzero; opacity: 1;" vector-effect="non-scaling-stroke"  transform=" translate(-255, -101.4)" d="M 339.48 135.533 L 171.373 135.533 C 161.13299999999998 135.533 152.6 126.99999999999999 152.6 117.61299999999999 L 152.6 85.187 C 152.6 75.8 161.13299999999998 67.267 171.373 67.267 L 339.48 67.267 C 349.72 67.267 357.40000000000003 75.8 357.40000000000003 85.187 L 357.40000000000003 116.75999999999999 C 357.4 127 349.72 135.533 339.48 135.533 z M 171.373 84.333 C 170.51999999999998 84.333 169.666 85.18599999999999 169.666 85.18599999999999 L 169.666 116.75899999999999 C 169.666 117.61199999999998 170.519 118.46599999999998 171.373 118.46599999999998 L 339.48 118.46599999999998 C 340.333 118.46599999999998 340.333 117.61299999999999 340.333 117.61299999999999 L 340.333 85.187 C 340.333 85.187 340.333 84.334 339.48 84.334 L 171.373 84.334 z" stroke-linecap="round" />
</g>
		<g transform="matrix(1.56 0 0 1.56 -0.26 239.92)"  >
<path style="stroke: none; stroke-width: 1; stroke-dasharray: none; stroke-linecap: butt; stroke-dashoffset: 0; stroke-linejoin: miter; stroke-miterlimit: 4; fill: rgb(0,0,0); fill-rule: nonzero; opacity: 1;" vector-effect="non-scaling-stroke"  transform=" translate(-255, -408.6)" d="M 339.48 442.733 L 171.373 442.733 C 161.13299999999998 442.733 152.6 434.2 152.6 424.813 L 152.6 393.24 C 152.6 383 161.13299999999998 374.467 171.373 374.467 L 339.48 374.467 C 349.72 374.467 357.40000000000003 383 357.40000000000003 392.387 L 357.40000000000003 423.96 C 357.4 434.2 349.72 442.733 339.48 442.733 z M 171.373 391.533 C 170.51999999999998 391.533 169.666 392.386 169.666 392.386 L 169.666 423.959 C 169.666 424.812 170.519 425.666 171.373 425.666 L 339.48 425.666 C 340.333 425.666 340.333 424.813 340.333 424.813 L 340.333 393.24 C 340.333 392.387 339.48 392.387 339.48 392.387 L 171.373 392.387 L 171.373 391.533 z" stroke-linecap="round" />
</g>
</g>
</g>
<g transform="matrix(0.46 0 0 1.31 455.28 539.59)"  >
<g style="" vector-effect="non-scaling-stroke"   >
		<g transform="matrix(1.56 0 0 1.56 -0.24 239.94)"  >
<path style="stroke: none; stroke-width: 1; stroke-dasharray: none; stroke-linecap: butt; stroke-dashoffset: 0; stroke-linejoin: miter; stroke-miterlimit: 4; fill: rgb(255,225,0); fill-rule: nonzero; opacity: 1;" vector-effect="non-scaling-stroke"  transform=" translate(-255, -408.6)" d="M 339.48 434.2 L 171.373 434.2 C 165.39999999999998 434.2 161.13299999999998 429.933 161.13299999999998 424.813 L 161.13299999999998 393.24 C 161.13299999999998 387.267 165.39999999999998 383 171.373 383 L 339.48 383 C 344.6 383 348.867 387.267 348.867 392.387 L 348.867 423.96 C 348.867 429.933 344.6 434.2 339.48 434.2" stroke-linecap="round" />
</g>
		<g transform="matrix(1.56 0 0 1.56 -0.15 333.25)"  >
<path style="stroke: none; stroke-width: 1; stroke-dasharray: none; stroke-linecap: butt; stroke-dashoffset: 0; stroke-linejoin: miter; stroke-miterlimit: 4; fill: rgb(255,225,0); fill-rule: nonzero; opacity: 1;" vector-effect="non-scaling-stroke"  transform=" translate(-255, -468.33)" d="M 305.347 502.467 L 205.50699999999998 502.467 C 199.53399999999996 502.467 195.26699999999997 498.2 195.26699999999997 493.08 L 195.26699999999997 434.2 L 314.734 434.2 L 314.734 493.08 C 314.733 498.2 310.467 502.467 305.347 502.467" stroke-linecap="round" />
</g>
		<g transform="matrix(1.56 0 0 1.56 -0.15 -0.32)"  >
<polygon style="stroke: none; stroke-width: 1; stroke-dasharray: none; stroke-linecap: butt; stroke-dashoffset: 0; stroke-linejoin: miter; stroke-miterlimit: 4; fill: rgb(255,225,0); fill-rule: nonzero; opacity: 1;" vector-effect="non-scaling-stroke"  points="-59.73,128 59.73,128 59.73,-128 -59.73,-128 " />
</g>
		<g transform="matrix(1.56 0 0 1.56 73.3 -0.32)"  >
<polygon style="stroke: none; stroke-width: 1; stroke-dasharray: none; stroke-linecap: butt; stroke-dashoffset: 0; stroke-linejoin: miter; stroke-miterlimit: 4; fill: rgb(255,168,0); fill-rule: nonzero; opacity: 1;" vector-effect="non-scaling-stroke"  points="-12.8,128 12.8,128 12.8,-128 -12.8,-128 " />
</g>
		<g transform="matrix(1.56 0 0 1.56 -73.36 -0.32)"  >
<polygon style="stroke: none; stroke-width: 1; stroke-dasharray: none; stroke-linecap: butt; stroke-dashoffset: 0; stroke-linejoin: miter; stroke-miterlimit: 4; fill: rgb(255,255,255); fill-rule: nonzero; opacity: 1;" vector-effect="non-scaling-stroke"  points="-12.8,128 12.8,128 12.8,-128 -12.8,-128 " />
</g>
		<g transform="matrix(1.56 0 0 1.56 -0.15 -333.42)"  >
<path style="stroke: none; stroke-width: 1; stroke-dasharray: none; stroke-linecap: butt; stroke-dashoffset: 0; stroke-linejoin: miter; stroke-miterlimit: 4; fill: rgb(255,225,0); fill-rule: nonzero; opacity: 1;" vector-effect="non-scaling-stroke"  transform=" translate(-255, -41.67)" d="M 314.733 75.8 L 195.267 75.8 L 195.267 16.92 C 195.267 11.8 199.534 7.533000000000001 205.507 7.533000000000001 L 305.347 7.533000000000001 C 310.467 7.533000000000001 314.734 11.8 314.734 16.92 L 314.734 75.8 z" stroke-linecap="round" />
</g>
		<g transform="matrix(1.56 0 0 1.56 65.96 -333.42)"  >
<path style="stroke: none; stroke-width: 1; stroke-dasharray: none; stroke-linecap: butt; stroke-dashoffset: 0; stroke-linejoin: miter; stroke-miterlimit: 4; fill: rgb(255,168,0); fill-rule: nonzero; opacity: 1;" vector-effect="non-scaling-stroke"  transform=" translate(-297.24, -41.67)" d="M 305.347 7.533 L 279.74699999999996 7.533 C 284.86699999999996 7.533 289.13399999999996 11.8 289.13399999999996 16.92 L 289.13399999999996 75.8 L 314.734 75.8 L 314.734 16.92 C 314.733 11.8 310.467 7.533 305.347 7.533" stroke-linecap="round" />
</g>
		<g transform="matrix(1.56 0 0 1.56 -65.37 -333.42)"  >
<path style="stroke: none; stroke-width: 1; stroke-dasharray: none; stroke-linecap: butt; stroke-dashoffset: 0; stroke-linejoin: miter; stroke-miterlimit: 4; fill: rgb(255,255,255); fill-rule: nonzero; opacity: 1;" vector-effect="non-scaling-stroke"  transform=" translate(-213.19, -41.67)" d="M 205.507 7.533 L 231.107 7.533 C 225.134 7.533 220.867 11.8 220.867 16.92 L 220.867 75.8 L 195.267 75.8 L 195.267 16.92 C 195.267 11.8 199.533 7.533 205.507 7.533" stroke-linecap="round" />
</g>
		<g transform="matrix(1.56 0 0 1.56 65.96 333.25)"  >
<path style="stroke: none; stroke-width: 1; stroke-dasharray: none; stroke-linecap: butt; stroke-dashoffset: 0; stroke-linejoin: miter; stroke-miterlimit: 4; fill: rgb(255,168,0); fill-rule: nonzero; opacity: 1;" vector-effect="non-scaling-stroke"  transform=" translate(-297.24, -468.33)" d="M 305.347 502.467 L 279.74699999999996 502.467 C 284.86699999999996 502.467 289.13399999999996 498.2 289.13399999999996 493.08 L 289.13399999999996 434.2 L 314.734 434.2 L 314.734 493.08 C 314.733 498.2 310.467 502.467 305.347 502.467" stroke-linecap="round" />
</g>
		<g transform="matrix(1.56 0 0 1.56 -65.37 333.25)"  >
<path style="stroke: none; stroke-width: 1; stroke-dasharray: none; stroke-linecap: butt; stroke-dashoffset: 0; stroke-linejoin: miter; stroke-miterlimit: 4; fill: rgb(255,255,255); fill-rule: nonzero; opacity: 1;" vector-effect="non-scaling-stroke"  transform=" translate(-213.19, -468.33)" d="M 205.507 502.467 L 231.107 502.467 C 225.134 502.467 220.867 498.2 220.867 493.08 L 220.867 434.2 L 195.267 434.2 L 195.267 493.08 C 195.267 498.2 199.533 502.467 205.507 502.467" stroke-linecap="round" />
</g>
		<g transform="matrix(1.56 0 0 1.56 -0.24 -240.06)"  >
<path style="stroke: none; stroke-width: 1; stroke-dasharray: none; stroke-linecap: butt; stroke-dashoffset: 0; stroke-linejoin: miter; stroke-miterlimit: 4; fill: rgb(255,225,0); fill-rule: nonzero; opacity: 1;" vector-effect="non-scaling-stroke"  transform=" translate(-255, -101.4)" d="M 339.48 127 L 171.373 127 C 165.39999999999998 127 161.13299999999998 122.733 161.13299999999998 117.613 L 161.13299999999998 85.187 C 161.13299999999998 80.067 165.39999999999998 75.8 171.373 75.8 L 339.48 75.8 C 344.6 75.8 348.867 80.067 348.867 85.187 L 348.867 116.75999999999999 C 348.867 122.733 344.6 127 339.48 127" stroke-linecap="round" />
</g>
		<g transform="matrix(1.56 0 0 1.56 119.29 -240.73)"  >
<path style="stroke: none; stroke-width: 1; stroke-dasharray: none; stroke-linecap: butt; stroke-dashoffset: 0; stroke-linejoin: miter; stroke-miterlimit: 4; fill: rgb(255,168,0); fill-rule: nonzero; opacity: 1;" vector-effect="non-scaling-stroke"  transform=" translate(-331.37, -100.97)" d="M 339.48 75.8 L 313.88 75.8 C 319 75.8 323.267 80.067 323.267 85.187 L 323.267 116.75999999999999 C 323.267 121.88 319 126.14699999999999 313.88 126.14699999999999 L 339.48 126.14699999999999 C 344.6 126.14699999999999 348.867 121.88 348.867 116.75999999999999 L 348.867 85.187 C 348.867 80.067 344.6 75.8 339.48 75.8" stroke-linecap="round" />
</g>
		<g transform="matrix(1.56 0 0 1.56 -118.71 -240.06)"  >
<path style="stroke: none; stroke-width: 1; stroke-dasharray: none; stroke-linecap: butt; stroke-dashoffset: 0; stroke-linejoin: miter; stroke-miterlimit: 4; fill: rgb(255,255,255); fill-rule: nonzero; opacity: 1;" vector-effect="non-scaling-stroke"  transform=" translate(-179.05, -101.4)" d="M 171.373 75.8 L 196.97299999999998 75.8 C 190.99999999999997 75.8 186.73299999999998 80.067 186.73299999999998 85.187 L 186.73299999999998 116.75999999999999 C 186.73299999999998 122.73299999999999 190.99999999999997 126.99999999999999 196.97299999999998 126.99999999999999 L 171.373 126.99999999999999 C 165.39999999999998 126.99999999999999 161.13299999999998 122.73299999999999 161.13299999999998 117.61299999999999 L 161.13299999999998 85.187 C 161.133 80.067 165.4 75.8 171.373 75.8" stroke-linecap="round" />
</g>
		<g transform="matrix(1.56 0 0 1.56 119.29 239.27)"  >
<path style="stroke: none; stroke-width: 1; stroke-dasharray: none; stroke-linecap: butt; stroke-dashoffset: 0; stroke-linejoin: miter; stroke-miterlimit: 4; fill: rgb(255,168,0); fill-rule: nonzero; opacity: 1;" vector-effect="non-scaling-stroke"  transform=" translate(-331.37, -408.17)" d="M 339.48 383 L 313.88 383 C 319 383 323.267 387.267 323.267 392.387 L 323.267 423.96 C 323.267 429.08 319 433.347 313.88 433.347 L 339.48 433.347 C 344.6 433.347 348.867 429.08 348.867 423.96 L 348.867 392.387 C 348.867 387.267 344.6 383 339.48 383" stroke-linecap="round" />
</g>
		<g transform="matrix(1.56 0 0 1.56 -118.71 239.94)"  >
<path style="stroke: none; stroke-width: 1; stroke-dasharray: none; stroke-linecap: butt; stroke-dashoffset: 0; stroke-linejoin: miter; stroke-miterlimit: 4; fill: rgb(255,255,255); fill-rule: nonzero; opacity: 1;" vector-effect="non-scaling-stroke"  transform=" translate(-179.05, -408.6)" d="M 171.373 383 L 196.97299999999998 383 C 190.99999999999997 383 186.73299999999998 387.267 186.73299999999998 392.387 L 186.73299999999998 423.96 C 186.73299999999998 429.933 190.99999999999997 434.2 196.97299999999998 434.2 L 171.373 434.2 C 165.39999999999998 434.2 161.13299999999998 429.933 161.13299999999998 424.813 L 161.13299999999998 393.24 C 161.133 387.267 165.4 383 171.373 383" stroke-linecap="round" />
</g>
		<g transform="matrix(1.56 0 0 1.56 -0.17 333.23)"  >
<path style="stroke: none; stroke-width: 1; stroke-dasharray: none; stroke-linecap: butt; stroke-dashoffset: 0; stroke-linejoin: miter; stroke-miterlimit: 4; fill: rgb(0,0,0); fill-rule: nonzero; opacity: 1;" vector-effect="non-scaling-stroke"  transform=" translate(-255, -468.33)" d="M 305.347 511 L 205.50699999999998 511 C 195.26699999999997 511 186.73399999999998 502.467 186.73399999999998 493.08 L 186.73399999999998 425.667 L 323.26699999999994 425.667 L 323.26699999999994 493.08 C 323.267 502.467 315.587 511 305.347 511 z M 203.8 442.733 L 203.8 493.08 C 203.8 493.08 204.65300000000002 493.933 205.507 493.933 L 305.347 493.933 C 306.2 493.933 306.2 493.08 306.2 493.08 L 306.2 442.733 L 203.8 442.733 z" stroke-linecap="round" />
</g>
		<g transform="matrix(1.56 0 0 1.56 -0.17 -0.34)"  >
<path style="stroke: none; stroke-width: 1; stroke-dasharray: none; stroke-linecap: butt; stroke-dashoffset: 0; stroke-linejoin: miter; stroke-miterlimit: 4; fill: rgb(0,0,0); fill-rule: nonzero; opacity: 1;" vector-effect="non-scaling-stroke"  transform=" translate(-255, -255)" d="M 323.267 391.533 L 186.733 391.533 L 186.733 118.467 L 323.26599999999996 118.467 L 323.26599999999996 391.533 z M 203.8 374.467 L 306.20000000000005 374.467 L 306.20000000000005 135.533 L 203.8 135.533 L 203.8 374.467 z" stroke-linecap="round" />
</g>
		<g transform="matrix(1.56 0 0 1.56 -0.17 -333.44)"  >
<path style="stroke: none; stroke-width: 1; stroke-dasharray: none; stroke-linecap: butt; stroke-dashoffset: 0; stroke-linejoin: miter; stroke-miterlimit: 4; fill: rgb(0,0,0); fill-rule: nonzero; opacity: 1;" vector-effect="non-scaling-stroke"  transform=" translate(-255, -41.67)" d="M 323.267 84.333 L 186.733 84.333 L 186.733 16.92 C 186.733 7.533000000000001 195.266 -1 205.506 -1 L 305.346 -1 C 315.586 -1 323.266 7.5329999999999995 323.266 16.92 L 323.266 84.333 z M 203.8 67.267 L 306.20000000000005 67.267 L 306.20000000000005 16.92 C 306.20000000000005 16.92 306.20000000000005 16.067 305.34700000000004 16.067 L 205.50700000000003 16.067 C 204.65400000000002 16.067 203.80000000000004 16.92 203.80000000000004 16.92 L 203.80000000000004 67.267 z" stroke-linecap="round" />
</g>
		<g transform="matrix(1.56 0 0 1.56 -0.26 -240.08)"  >
<path style="stroke: none; stroke-width: 1; stroke-dasharray: none; stroke-linecap: butt; stroke-dashoffset: 0; stroke-linejoin: miter; stroke-miterlimit: 4; fill: rgb(0,0,0); fill-rule: nonzero; opacity: 1;" vector-effect="non-scaling-stroke"  transform=" translate(-255, -101.4)" d="M 339.48 135.533 L 171.373 135.533 C 161.13299999999998 135.533 152.6 126.99999999999999 152.6 117.61299999999999 L 152.6 85.187 C 152.6 75.8 161.13299999999998 67.267 171.373 67.267 L 339.48 67.267 C 349.72 67.267 357.40000000000003 75.8 357.40000000000003 85.187 L 357.40000000000003 116.75999999999999 C 357.4 127 349.72 135.533 339.48 135.533 z M 171.373 84.333 C 170.51999999999998 84.333 169.666 85.18599999999999 169.666 85.18599999999999 L 169.666 116.75899999999999 C 169.666 117.61199999999998 170.519 118.46599999999998 171.373 118.46599999999998 L 339.48 118.46599999999998 C 340.333 118.46599999999998 340.333 117.61299999999999 340.333 117.61299999999999 L 340.333 85.187 C 340.333 85.187 340.333 84.334 339.48 84.334 L 171.373 84.334 z" stroke-linecap="round" />
</g>
		<g transform="matrix(1.56 0 0 1.56 -0.26 239.92)"  >
<path style="stroke: none; stroke-width: 1; stroke-dasharray: none; stroke-linecap: butt; stroke-dashoffset: 0; stroke-linejoin: miter; stroke-miterlimit: 4; fill: rgb(0,0,0); fill-rule: nonzero; opacity: 1;" vector-effect="non-scaling-stroke"  transform=" translate(-255, -408.6)" d="M 339.48 442.733 L 171.373 442.733 C 161.13299999999998 442.733 152.6 434.2 152.6 424.813 L 152.6 393.24 C 152.6 383 161.13299999999998 374.467 171.373 374.467 L 339.48 374.467 C 349.72 374.467 357.40000000000003 383 357.40000000000003 392.387 L 357.40000000000003 423.96 C 357.4 434.2 349.72 442.733 339.48 442.733 z M 171.373 391.533 C 170.51999999999998 391.533 169.666 392.386 169.666 392.386 L 169.666 423.959 C 169.666 424.812 170.519 425.666 171.373 425.666 L 339.48 425.666 C 340.333 425.666 340.333 424.813 340.333 424.813 L 340.333 393.24 C 340.333 392.387 339.48 392.387 339.48 392.387 L 171.373 392.387 L 171.373 391.533 z" stroke-linecap="round" />
</g>
</g>
</g>
<g transform="matrix(0.46 0 0 1.31 636.65 539.96)"  >
<g style="" vector-effect="non-scaling-stroke"   >
		<g transform="matrix(1.56 0 0 1.56 -0.24 239.94)"  >
<path style="stroke: none; stroke-width: 1; stroke-dasharray: none; stroke-linecap: butt; stroke-dashoffset: 0; stroke-linejoin: miter; stroke-miterlimit: 4; fill: rgb(255,225,0); fill-rule: nonzero; opacity: 1;" vector-effect="non-scaling-stroke"  transform=" translate(-255, -408.6)" d="M 339.48 434.2 L 171.373 434.2 C 165.39999999999998 434.2 161.13299999999998 429.933 161.13299999999998 424.813 L 161.13299999999998 393.24 C 161.13299999999998 387.267 165.39999999999998 383 171.373 383 L 339.48 383 C 344.6 383 348.867 387.267 348.867 392.387 L 348.867 423.96 C 348.867 429.933 344.6 434.2 339.48 434.2" stroke-linecap="round" />
</g>
		<g transform="matrix(1.56 0 0 1.56 -0.15 333.25)"  >
<path style="stroke: none; stroke-width: 1; stroke-dasharray: none; stroke-linecap: butt; stroke-dashoffset: 0; stroke-linejoin: miter; stroke-miterlimit: 4; fill: rgb(255,225,0); fill-rule: nonzero; opacity: 1;" vector-effect="non-scaling-stroke"  transform=" translate(-255, -468.33)" d="M 305.347 502.467 L 205.50699999999998 502.467 C 199.53399999999996 502.467 195.26699999999997 498.2 195.26699999999997 493.08 L 195.26699999999997 434.2 L 314.734 434.2 L 314.734 493.08 C 314.733 498.2 310.467 502.467 305.347 502.467" stroke-linecap="round" />
</g>
		<g transform="matrix(1.56 0 0 1.56 -0.15 -0.32)"  >
<polygon style="stroke: none; stroke-width: 1; stroke-dasharray: none; stroke-linecap: butt; stroke-dashoffset: 0; stroke-linejoin: miter; stroke-miterlimit: 4; fill: rgb(255,225,0); fill-rule: nonzero; opacity: 1;" vector-effect="non-scaling-stroke"  points="-59.73,128 59.73,128 59.73,-128 -59.73,-128 " />
</g>
		<g transform="matrix(1.56 0 0 1.56 73.3 -0.32)"  >
<polygon style="stroke: none; stroke-width: 1; stroke-dasharray: none; stroke-linecap: butt; stroke-dashoffset: 0; stroke-linejoin: miter; stroke-miterlimit: 4; fill: rgb(255,168,0); fill-rule: nonzero; opacity: 1;" vector-effect="non-scaling-stroke"  points="-12.8,128 12.8,128 12.8,-128 -12.8,-128 " />
</g>
		<g transform="matrix(1.56 0 0 1.56 -73.36 -0.32)"  >
<polygon style="stroke: none; stroke-width: 1; stroke-dasharray: none; stroke-linecap: butt; stroke-dashoffset: 0; stroke-linejoin: miter; stroke-miterlimit: 4; fill: rgb(255,255,255); fill-rule: nonzero; opacity: 1;" vector-effect="non-scaling-stroke"  points="-12.8,128 12.8,128 12.8,-128 -12.8,-128 " />
</g>
		<g transform="matrix(1.56 0 0 1.56 -0.15 -333.42)"  >
<path style="stroke: none; stroke-width: 1; stroke-dasharray: none; stroke-linecap: butt; stroke-dashoffset: 0; stroke-linejoin: miter; stroke-miterlimit: 4; fill: rgb(255,225,0); fill-rule: nonzero; opacity: 1;" vector-effect="non-scaling-stroke"  transform=" translate(-255, -41.67)" d="M 314.733 75.8 L 195.267 75.8 L 195.267 16.92 C 195.267 11.8 199.534 7.533000000000001 205.507 7.533000000000001 L 305.347 7.533000000000001 C 310.467 7.533000000000001 314.734 11.8 314.734 16.92 L 314.734 75.8 z" stroke-linecap="round" />
</g>
		<g transform="matrix(1.56 0 0 1.56 65.96 -333.42)"  >
<path style="stroke: none; stroke-width: 1; stroke-dasharray: none; stroke-linecap: butt; stroke-dashoffset: 0; stroke-linejoin: miter; stroke-miterlimit: 4; fill: rgb(255,168,0); fill-rule: nonzero; opacity: 1;" vector-effect="non-scaling-stroke"  transform=" translate(-297.24, -41.67)" d="M 305.347 7.533 L 279.74699999999996 7.533 C 284.86699999999996 7.533 289.13399999999996 11.8 289.13399999999996 16.92 L 289.13399999999996 75.8 L 314.734 75.8 L 314.734 16.92 C 314.733 11.8 310.467 7.533 305.347 7.533" stroke-linecap="round" />
</g>
		<g transform="matrix(1.56 0 0 1.56 -65.37 -333.42)"  >
<path style="stroke: none; stroke-width: 1; stroke-dasharray: none; stroke-linecap: butt; stroke-dashoffset: 0; stroke-linejoin: miter; stroke-miterlimit: 4; fill: rgb(255,255,255); fill-rule: nonzero; opacity: 1;" vector-effect="non-scaling-stroke"  transform=" translate(-213.19, -41.67)" d="M 205.507 7.533 L 231.107 7.533 C 225.134 7.533 220.867 11.8 220.867 16.92 L 220.867 75.8 L 195.267 75.8 L 195.267 16.92 C 195.267 11.8 199.533 7.533 205.507 7.533" stroke-linecap="round" />
</g>
		<g transform="matrix(1.56 0 0 1.56 65.96 333.25)"  >
<path style="stroke: none; stroke-width: 1; stroke-dasharray: none; stroke-linecap: butt; stroke-dashoffset: 0; stroke-linejoin: miter; stroke-miterlimit: 4; fill: rgb(255,168,0); fill-rule: nonzero; opacity: 1;" vector-effect="non-scaling-stroke"  transform=" translate(-297.24, -468.33)" d="M 305.347 502.467 L 279.74699999999996 502.467 C 284.86699999999996 502.467 289.13399999999996 498.2 289.13399999999996 493.08 L 289.13399999999996 434.2 L 314.734 434.2 L 314.734 493.08 C 314.733 498.2 310.467 502.467 305.347 502.467" stroke-linecap="round" />
</g>
		<g transform="matrix(1.56 0 0 1.56 -65.37 333.25)"  >
<path style="stroke: none; stroke-width: 1; stroke-dasharray: none; stroke-linecap: butt; stroke-dashoffset: 0; stroke-linejoin: miter; stroke-miterlimit: 4; fill: rgb(255,255,255); fill-rule: nonzero; opacity: 1;" vector-effect="non-scaling-stroke"  transform=" translate(-213.19, -468.33)" d="M 205.507 502.467 L 231.107 502.467 C 225.134 502.467 220.867 498.2 220.867 493.08 L 220.867 434.2 L 195.267 434.2 L 195.267 493.08 C 195.267 498.2 199.533 502.467 205.507 502.467" stroke-linecap="round" />
</g>
		<g transform="matrix(1.56 0 0 1.56 -0.24 -240.06)"  >
<path style="stroke: none; stroke-width: 1; stroke-dasharray: none; stroke-linecap: butt; stroke-dashoffset: 0; stroke-linejoin: miter; stroke-miterlimit: 4; fill: rgb(255,225,0); fill-rule: nonzero; opacity: 1;" vector-effect="non-scaling-stroke"  transform=" translate(-255, -101.4)" d="M 339.48 127 L 171.373 127 C 165.39999999999998 127 161.13299999999998 122.733 161.13299999999998 117.613 L 161.13299999999998 85.187 C 161.13299999999998 80.067 165.39999999999998 75.8 171.373 75.8 L 339.48 75.8 C 344.6 75.8 348.867 80.067 348.867 85.187 L 348.867 116.75999999999999 C 348.867 122.733 344.6 127 339.48 127" stroke-linecap="round" />
</g>
		<g transform="matrix(1.56 0 0 1.56 119.29 -240.73)"  >
<path style="stroke: none; stroke-width: 1; stroke-dasharray: none; stroke-linecap: butt; stroke-dashoffset: 0; stroke-linejoin: miter; stroke-miterlimit: 4; fill: rgb(255,168,0); fill-rule: nonzero; opacity: 1;" vector-effect="non-scaling-stroke"  transform=" translate(-331.37, -100.97)" d="M 339.48 75.8 L 313.88 75.8 C 319 75.8 323.267 80.067 323.267 85.187 L 323.267 116.75999999999999 C 323.267 121.88 319 126.14699999999999 313.88 126.14699999999999 L 339.48 126.14699999999999 C 344.6 126.14699999999999 348.867 121.88 348.867 116.75999999999999 L 348.867 85.187 C 348.867 80.067 344.6 75.8 339.48 75.8" stroke-linecap="round" />
</g>
		<g transform="matrix(1.56 0 0 1.56 -118.71 -240.06)"  >
<path style="stroke: none; stroke-width: 1; stroke-dasharray: none; stroke-linecap: butt; stroke-dashoffset: 0; stroke-linejoin: miter; stroke-miterlimit: 4; fill: rgb(255,255,255); fill-rule: nonzero; opacity: 1;" vector-effect="non-scaling-stroke"  transform=" translate(-179.05, -101.4)" d="M 171.373 75.8 L 196.97299999999998 75.8 C 190.99999999999997 75.8 186.73299999999998 80.067 186.73299999999998 85.187 L 186.73299999999998 116.75999999999999 C 186.73299999999998 122.73299999999999 190.99999999999997 126.99999999999999 196.97299999999998 126.99999999999999 L 171.373 126.99999999999999 C 165.39999999999998 126.99999999999999 161.13299999999998 122.73299999999999 161.13299999999998 117.61299999999999 L 161.13299999999998 85.187 C 161.133 80.067 165.4 75.8 171.373 75.8" stroke-linecap="round" />
</g>
		<g transform="matrix(1.56 0 0 1.56 119.29 239.27)"  >
<path style="stroke: none; stroke-width: 1; stroke-dasharray: none; stroke-linecap: butt; stroke-dashoffset: 0; stroke-linejoin: miter; stroke-miterlimit: 4; fill: rgb(255,168,0); fill-rule: nonzero; opacity: 1;" vector-effect="non-scaling-stroke"  transform=" translate(-331.37, -408.17)" d="M 339.48 383 L 313.88 383 C 319 383 323.267 387.267 323.267 392.387 L 323.267 423.96 C 323.267 429.08 319 433.347 313.88 433.347 L 339.48 433.347 C 344.6 433.347 348.867 429.08 348.867 423.96 L 348.867 392.387 C 348.867 387.267 344.6 383 339.48 383" stroke-linecap="round" />
</g>
		<g transform="matrix(1.56 0 0 1.56 -118.71 239.94)"  >
<path style="stroke: none; stroke-width: 1; stroke-dasharray: none; stroke-linecap: butt; stroke-dashoffset: 0; stroke-linejoin: miter; stroke-miterlimit: 4; fill: rgb(255,255,255); fill-rule: nonzero; opacity: 1;" vector-effect="non-scaling-stroke"  transform=" translate(-179.05, -408.6)" d="M 171.373 383 L 196.97299999999998 383 C 190.99999999999997 383 186.73299999999998 387.267 186.73299999999998 392.387 L 186.73299999999998 423.96 C 186.73299999999998 429.933 190.99999999999997 434.2 196.97299999999998 434.2 L 171.373 434.2 C 165.39999999999998 434.2 161.13299999999998 429.933 161.13299999999998 424.813 L 161.13299999999998 393.24 C 161.133 387.267 165.4 383 171.373 383" stroke-linecap="round" />
</g>
		<g transform="matrix(1.56 0 0 1.56 -0.17 333.23)"  >
<path style="stroke: none; stroke-width: 1; stroke-dasharray: none; stroke-linecap: butt; stroke-dashoffset: 0; stroke-linejoin: miter; stroke-miterlimit: 4; fill: rgb(0,0,0); fill-rule: nonzero; opacity: 1;" vector-effect="non-scaling-stroke"  transform=" translate(-255, -468.33)" d="M 305.347 511 L 205.50699999999998 511 C 195.26699999999997 511 186.73399999999998 502.467 186.73399999999998 493.08 L 186.73399999999998 425.667 L 323.26699999999994 425.667 L 323.26699999999994 493.08 C 323.267 502.467 315.587 511 305.347 511 z M 203.8 442.733 L 203.8 493.08 C 203.8 493.08 204.65300000000002 493.933 205.507 493.933 L 305.347 493.933 C 306.2 493.933 306.2 493.08 306.2 493.08 L 306.2 442.733 L 203.8 442.733 z" stroke-linecap="round" />
</g>
		<g transform="matrix(1.56 0 0 1.56 -0.17 -0.34)"  >
<path style="stroke: none; stroke-width: 1; stroke-dasharray: none; stroke-linecap: butt; stroke-dashoffset: 0; stroke-linejoin: miter; stroke-miterlimit: 4; fill: rgb(0,0,0); fill-rule: nonzero; opacity: 1;" vector-effect="non-scaling-stroke"  transform=" translate(-255, -255)" d="M 323.267 391.533 L 186.733 391.533 L 186.733 118.467 L 323.26599999999996 118.467 L 323.26599999999996 391.533 z M 203.8 374.467 L 306.20000000000005 374.467 L 306.20000000000005 135.533 L 203.8 135.533 L 203.8 374.467 z" stroke-linecap="round" />
</g>
		<g transform="matrix(1.56 0 0 1.56 -0.17 -333.44)"  >
<path style="stroke: none; stroke-width: 1; stroke-dasharray: none; stroke-linecap: butt; stroke-dashoffset: 0; stroke-linejoin: miter; stroke-miterlimit: 4; fill: rgb(0,0,0); fill-rule: nonzero; opacity: 1;" vector-effect="non-scaling-stroke"  transform=" translate(-255, -41.67)" d="M 323.267 84.333 L 186.733 84.333 L 186.733 16.92 C 186.733 7.533000000000001 195.266 -1 205.506 -1 L 305.346 -1 C 315.586 -1 323.266 7.5329999999999995 323.266 16.92 L 323.266 84.333 z M 203.8 67.267 L 306.20000000000005 67.267 L 306.20000000000005 16.92 C 306.20000000000005 16.92 306.20000000000005 16.067 305.34700000000004 16.067 L 205.50700000000003 16.067 C 204.65400000000002 16.067 203.80000000000004 16.92 203.80000000000004 16.92 L 203.80000000000004 67.267 z" stroke-linecap="round" />
</g>
		<g transform="matrix(1.56 0 0 1.56 -0.26 -240.08)"  >
<path style="stroke: none; stroke-width: 1; stroke-dasharray: none; stroke-linecap: butt; stroke-dashoffset: 0; stroke-linejoin: miter; stroke-miterlimit: 4; fill: rgb(0,0,0); fill-rule: nonzero; opacity: 1;" vector-effect="non-scaling-stroke"  transform=" translate(-255, -101.4)" d="M 339.48 135.533 L 171.373 135.533 C 161.13299999999998 135.533 152.6 126.99999999999999 152.6 117.61299999999999 L 152.6 85.187 C 152.6 75.8 161.13299999999998 67.267 171.373 67.267 L 339.48 67.267 C 349.72 67.267 357.40000000000003 75.8 357.40000000000003 85.187 L 357.40000000000003 116.75999999999999 C 357.4 127 349.72 135.533 339.48 135.533 z M 171.373 84.333 C 170.51999999999998 84.333 169.666 85.18599999999999 169.666 85.18599999999999 L 169.666 116.75899999999999 C 169.666 117.61199999999998 170.519 118.46599999999998 171.373 118.46599999999998 L 339.48 118.46599999999998 C 340.333 118.46599999999998 340.333 117.61299999999999 340.333 117.61299999999999 L 340.333 85.187 C 340.333 85.187 340.333 84.334 339.48 84.334 L 171.373 84.334 z" stroke-linecap="round" />
</g>
		<g transform="matrix(1.56 0 0 1.56 -0.26 239.92)"  >
<path style="stroke: none; stroke-width: 1; stroke-dasharray: none; stroke-linecap: butt; stroke-dashoffset: 0; stroke-linejoin: miter; stroke-miterlimit: 4; fill: rgb(0,0,0); fill-rule: nonzero; opacity: 1;" vector-effect="non-scaling-stroke"  transform=" translate(-255, -408.6)" d="M 339.48 442.733 L 171.373 442.733 C 161.13299999999998 442.733 152.6 434.2 152.6 424.813 L 152.6 393.24 C 152.6 383 161.13299999999998 374.467 171.373 374.467 L 339.48 374.467 C 349.72 374.467 357.40000000000003 383 357.40000000000003 392.387 L 357.40000000000003 423.96 C 357.4 434.2 349.72 442.733 339.48 442.733 z M 171.373 391.533 C 170.51999999999998 391.533 169.666 392.386 169.666 392.386 L 169.666 423.959 C 169.666 424.812 170.519 425.666 171.373 425.666 L 339.48 425.666 C 340.333 425.666 340.333 424.813 340.333 424.813 L 340.333 393.24 C 340.333 392.387 339.48 392.387 339.48 392.387 L 171.373 392.387 L 171.373 391.533 z" stroke-linecap="round" />
</g>
</g>
</g>
<g transform="matrix(0.46 0 0 1.31 805.69 539.22)"  >
<g style="" vector-effect="non-scaling-stroke"   >
		<g transform="matrix(1.56 0 0 1.56 -0.24 239.94)"  >
<path style="stroke: none; stroke-width: 1; stroke-dasharray: none; stroke-linecap: butt; stroke-dashoffset: 0; stroke-linejoin: miter; stroke-miterlimit: 4; fill: rgb(255,225,0); fill-rule: nonzero; opacity: 1;" vector-effect="non-scaling-stroke"  transform=" translate(-255, -408.6)" d="M 339.48 434.2 L 171.373 434.2 C 165.39999999999998 434.2 161.13299999999998 429.933 161.13299999999998 424.813 L 161.13299999999998 393.24 C 161.13299999999998 387.267 165.39999999999998 383 171.373 383 L 339.48 383 C 344.6 383 348.867 387.267 348.867 392.387 L 348.867 423.96 C 348.867 429.933 344.6 434.2 339.48 434.2" stroke-linecap="round" />
</g>
		<g transform="matrix(1.56 0 0 1.56 -0.15 333.25)"  >
<path style="stroke: none; stroke-width: 1; stroke-dasharray: none; stroke-linecap: butt; stroke-dashoffset: 0; stroke-linejoin: miter; stroke-miterlimit: 4; fill: rgb(255,225,0); fill-rule: nonzero; opacity: 1;" vector-effect="non-scaling-stroke"  transform=" translate(-255, -468.33)" d="M 305.347 502.467 L 205.50699999999998 502.467 C 199.53399999999996 502.467 195.26699999999997 498.2 195.26699999999997 493.08 L 195.26699999999997 434.2 L 314.734 434.2 L 314.734 493.08 C 314.733 498.2 310.467 502.467 305.347 502.467" stroke-linecap="round" />
</g>
		<g transform="matrix(1.56 0 0 1.56 -0.15 -0.32)"  >
<polygon style="stroke: none; stroke-width: 1; stroke-dasharray: none; stroke-linecap: butt; stroke-dashoffset: 0; stroke-linejoin: miter; stroke-miterlimit: 4; fill: rgb(255,225,0); fill-rule: nonzero; opacity: 1;" vector-effect="non-scaling-stroke"  points="-59.73,128 59.73,128 59.73,-128 -59.73,-128 " />
</g>
		<g transform="matrix(1.56 0 0 1.56 73.3 -0.32)"  >
<polygon style="stroke: none; stroke-width: 1; stroke-dasharray: none; stroke-linecap: butt; stroke-dashoffset: 0; stroke-linejoin: miter; stroke-miterlimit: 4; fill: rgb(255,168,0); fill-rule: nonzero; opacity: 1;" vector-effect="non-scaling-stroke"  points="-12.8,128 12.8,128 12.8,-128 -12.8,-128 " />
</g>
		<g transform="matrix(1.56 0 0 1.56 -73.36 -0.32)"  >
<polygon style="stroke: none; stroke-width: 1; stroke-dasharray: none; stroke-linecap: butt; stroke-dashoffset: 0; stroke-linejoin: miter; stroke-miterlimit: 4; fill: rgb(255,255,255); fill-rule: nonzero; opacity: 1;" vector-effect="non-scaling-stroke"  points="-12.8,128 12.8,128 12.8,-128 -12.8,-128 " />
</g>
		<g transform="matrix(1.56 0 0 1.56 -0.15 -333.42)"  >
<path style="stroke: none; stroke-width: 1; stroke-dasharray: none; stroke-linecap: butt; stroke-dashoffset: 0; stroke-linejoin: miter; stroke-miterlimit: 4; fill: rgb(255,225,0); fill-rule: nonzero; opacity: 1;" vector-effect="non-scaling-stroke"  transform=" translate(-255, -41.67)" d="M 314.733 75.8 L 195.267 75.8 L 195.267 16.92 C 195.267 11.8 199.534 7.533000000000001 205.507 7.533000000000001 L 305.347 7.533000000000001 C 310.467 7.533000000000001 314.734 11.8 314.734 16.92 L 314.734 75.8 z" stroke-linecap="round" />
</g>
		<g transform="matrix(1.56 0 0 1.56 65.96 -333.42)"  >
<path style="stroke: none; stroke-width: 1; stroke-dasharray: none; stroke-linecap: butt; stroke-dashoffset: 0; stroke-linejoin: miter; stroke-miterlimit: 4; fill: rgb(255,168,0); fill-rule: nonzero; opacity: 1;" vector-effect="non-scaling-stroke"  transform=" translate(-297.24, -41.67)" d="M 305.347 7.533 L 279.74699999999996 7.533 C 284.86699999999996 7.533 289.13399999999996 11.8 289.13399999999996 16.92 L 289.13399999999996 75.8 L 314.734 75.8 L 314.734 16.92 C 314.733 11.8 310.467 7.533 305.347 7.533" stroke-linecap="round" />
</g>
		<g transform="matrix(1.56 0 0 1.56 -65.37 -333.42)"  >
<path style="stroke: none; stroke-width: 1; stroke-dasharray: none; stroke-linecap: butt; stroke-dashoffset: 0; stroke-linejoin: miter; stroke-miterlimit: 4; fill: rgb(255,255,255); fill-rule: nonzero; opacity: 1;" vector-effect="non-scaling-stroke"  transform=" translate(-213.19, -41.67)" d="M 205.507 7.533 L 231.107 7.533 C 225.134 7.533 220.867 11.8 220.867 16.92 L 220.867 75.8 L 195.267 75.8 L 195.267 16.92 C 195.267 11.8 199.533 7.533 205.507 7.533" stroke-linecap="round" />
</g>
		<g transform="matrix(1.56 0 0 1.56 65.96 333.25)"  >
<path style="stroke: none; stroke-width: 1; stroke-dasharray: none; stroke-linecap: butt; stroke-dashoffset: 0; stroke-linejoin: miter; stroke-miterlimit: 4; fill: rgb(255,168,0); fill-rule: nonzero; opacity: 1;" vector-effect="non-scaling-stroke"  transform=" translate(-297.24, -468.33)" d="M 305.347 502.467 L 279.74699999999996 502.467 C 284.86699999999996 502.467 289.13399999999996 498.2 289.13399999999996 493.08 L 289.13399999999996 434.2 L 314.734 434.2 L 314.734 493.08 C 314.733 498.2 310.467 502.467 305.347 502.467" stroke-linecap="round" />
</g>
		<g transform="matrix(1.56 0 0 1.56 -65.37 333.25)"  >
<path style="stroke: none; stroke-width: 1; stroke-dasharray: none; stroke-linecap: butt; stroke-dashoffset: 0; stroke-linejoin: miter; stroke-miterlimit: 4; fill: rgb(255,255,255); fill-rule: nonzero; opacity: 1;" vector-effect="non-scaling-stroke"  transform=" translate(-213.19, -468.33)" d="M 205.507 502.467 L 231.107 502.467 C 225.134 502.467 220.867 498.2 220.867 493.08 L 220.867 434.2 L 195.267 434.2 L 195.267 493.08 C 195.267 498.2 199.533 502.467 205.507 502.467" stroke-linecap="round" />
</g>
		<g transform="matrix(1.56 0 0 1.56 -0.24 -240.06)"  >
<path style="stroke: none; stroke-width: 1; stroke-dasharray: none; stroke-linecap: butt; stroke-dashoffset: 0; stroke-linejoin: miter; stroke-miterlimit: 4; fill: rgb(255,225,0); fill-rule: nonzero; opacity: 1;" vector-effect="non-scaling-stroke"  transform=" translate(-255, -101.4)" d="M 339.48 127 L 171.373 127 C 165.39999999999998 127 161.13299999999998 122.733 161.13299999999998 117.613 L 161.13299999999998 85.187 C 161.13299999999998 80.067 165.39999999999998 75.8 171.373 75.8 L 339.48 75.8 C 344.6 75.8 348.867 80.067 348.867 85.187 L 348.867 116.75999999999999 C 348.867 122.733 344.6 127 339.48 127" stroke-linecap="round" />
</g>
		<g transform="matrix(1.56 0 0 1.56 119.29 -240.73)"  >
<path style="stroke: none; stroke-width: 1; stroke-dasharray: none; stroke-linecap: butt; stroke-dashoffset: 0; stroke-linejoin: miter; stroke-miterlimit: 4; fill: rgb(255,168,0); fill-rule: nonzero; opacity: 1;" vector-effect="non-scaling-stroke"  transform=" translate(-331.37, -100.97)" d="M 339.48 75.8 L 313.88 75.8 C 319 75.8 323.267 80.067 323.267 85.187 L 323.267 116.75999999999999 C 323.267 121.88 319 126.14699999999999 313.88 126.14699999999999 L 339.48 126.14699999999999 C 344.6 126.14699999999999 348.867 121.88 348.867 116.75999999999999 L 348.867 85.187 C 348.867 80.067 344.6 75.8 339.48 75.8" stroke-linecap="round" />
</g>
		<g transform="matrix(1.56 0 0 1.56 -118.71 -240.06)"  >
<path style="stroke: none; stroke-width: 1; stroke-dasharray: none; stroke-linecap: butt; stroke-dashoffset: 0; stroke-linejoin: miter; stroke-miterlimit: 4; fill: rgb(255,255,255); fill-rule: nonzero; opacity: 1;" vector-effect="non-scaling-stroke"  transform=" translate(-179.05, -101.4)" d="M 171.373 75.8 L 196.97299999999998 75.8 C 190.99999999999997 75.8 186.73299999999998 80.067 186.73299999999998 85.187 L 186.73299999999998 116.75999999999999 C 186.73299999999998 122.73299999999999 190.99999999999997 126.99999999999999 196.97299999999998 126.99999999999999 L 171.373 126.99999999999999 C 165.39999999999998 126.99999999999999 161.13299999999998 122.73299999999999 161.13299999999998 117.61299999999999 L 161.13299999999998 85.187 C 161.133 80.067 165.4 75.8 171.373 75.8" stroke-linecap="round" />
</g>
		<g transform="matrix(1.56 0 0 1.56 119.29 239.27)"  >
<path style="stroke: none; stroke-width: 1; stroke-dasharray: none; stroke-linecap: butt; stroke-dashoffset: 0; stroke-linejoin: miter; stroke-miterlimit: 4; fill: rgb(255,168,0); fill-rule: nonzero; opacity: 1;" vector-effect="non-scaling-stroke"  transform=" translate(-331.37, -408.17)" d="M 339.48 383 L 313.88 383 C 319 383 323.267 387.267 323.267 392.387 L 323.267 423.96 C 323.267 429.08 319 433.347 313.88 433.347 L 339.48 433.347 C 344.6 433.347 348.867 429.08 348.867 423.96 L 348.867 392.387 C 348.867 387.267 344.6 383 339.48 383" stroke-linecap="round" />
</g>
		<g transform="matrix(1.56 0 0 1.56 -118.71 239.94)"  >
<path style="stroke: none; stroke-width: 1; stroke-dasharray: none; stroke-linecap: butt; stroke-dashoffset: 0; stroke-linejoin: miter; stroke-miterlimit: 4; fill: rgb(255,255,255); fill-rule: nonzero; opacity: 1;" vector-effect="non-scaling-stroke"  transform=" translate(-179.05, -408.6)" d="M 171.373 383 L 196.97299999999998 383 C 190.99999999999997 383 186.73299999999998 387.267 186.73299999999998 392.387 L 186.73299999999998 423.96 C 186.73299999999998 429.933 190.99999999999997 434.2 196.97299999999998 434.2 L 171.373 434.2 C 165.39999999999998 434.2 161.13299999999998 429.933 161.13299999999998 424.813 L 161.13299999999998 393.24 C 161.133 387.267 165.4 383 171.373 383" stroke-linecap="round" />
</g>
		<g transform="matrix(1.56 0 0 1.56 -0.17 333.23)"  >
<path style="stroke: none; stroke-width: 1; stroke-dasharray: none; stroke-linecap: butt; stroke-dashoffset: 0; stroke-linejoin: miter; stroke-miterlimit: 4; fill: rgb(0,0,0); fill-rule: nonzero; opacity: 1;" vector-effect="non-scaling-stroke"  transform=" translate(-255, -468.33)" d="M 305.347 511 L 205.50699999999998 511 C 195.26699999999997 511 186.73399999999998 502.467 186.73399999999998 493.08 L 186.73399999999998 425.667 L 323.26699999999994 425.667 L 323.26699999999994 493.08 C 323.267 502.467 315.587 511 305.347 511 z M 203.8 442.733 L 203.8 493.08 C 203.8 493.08 204.65300000000002 493.933 205.507 493.933 L 305.347 493.933 C 306.2 493.933 306.2 493.08 306.2 493.08 L 306.2 442.733 L 203.8 442.733 z" stroke-linecap="round" />
</g>
		<g transform="matrix(1.56 0 0 1.56 -0.17 -0.34)"  >
<path style="stroke: none; stroke-width: 1; stroke-dasharray: none; stroke-linecap: butt; stroke-dashoffset: 0; stroke-linejoin: miter; stroke-miterlimit: 4; fill: rgb(0,0,0); fill-rule: nonzero; opacity: 1;" vector-effect="non-scaling-stroke"  transform=" translate(-255, -255)" d="M 323.267 391.533 L 186.733 391.533 L 186.733 118.467 L 323.26599999999996 118.467 L 323.26599999999996 391.533 z M 203.8 374.467 L 306.20000000000005 374.467 L 306.20000000000005 135.533 L 203.8 135.533 L 203.8 374.467 z" stroke-linecap="round" />
</g>
		<g transform="matrix(1.56 0 0 1.56 -0.17 -333.44)"  >
<path style="stroke: none; stroke-width: 1; stroke-dasharray: none; stroke-linecap: butt; stroke-dashoffset: 0; stroke-linejoin: miter; stroke-miterlimit: 4; fill: rgb(0,0,0); fill-rule: nonzero; opacity: 1;" vector-effect="non-scaling-stroke"  transform=" translate(-255, -41.67)" d="M 323.267 84.333 L 186.733 84.333 L 186.733 16.92 C 186.733 7.533000000000001 195.266 -1 205.506 -1 L 305.346 -1 C 315.586 -1 323.266 7.5329999999999995 323.266 16.92 L 323.266 84.333 z M 203.8 67.267 L 306.20000000000005 67.267 L 306.20000000000005 16.92 C 306.20000000000005 16.92 306.20000000000005 16.067 305.34700000000004 16.067 L 205.50700000000003 16.067 C 204.65400000000002 16.067 203.80000000000004 16.92 203.80000000000004 16.92 L 203.80000000000004 67.267 z" stroke-linecap="round" />
</g>
		<g transform="matrix(1.56 0 0 1.56 -0.26 -240.08)"  >
<path style="stroke: none; stroke-width: 1; stroke-dasharray: none; stroke-linecap: butt; stroke-dashoffset: 0; stroke-linejoin: miter; stroke-miterlimit: 4; fill: rgb(0,0,0); fill-rule: nonzero; opacity: 1;" vector-effect="non-scaling-stroke"  transform=" translate(-255, -101.4)" d="M 339.48 135.533 L 171.373 135.533 C 161.13299999999998 135.533 152.6 126.99999999999999 152.6 117.61299999999999 L 152.6 85.187 C 152.6 75.8 161.13299999999998 67.267 171.373 67.267 L 339.48 67.267 C 349.72 67.267 357.40000000000003 75.8 357.40000000000003 85.187 L 357.40000000000003 116.75999999999999 C 357.4 127 349.72 135.533 339.48 135.533 z M 171.373 84.333 C 170.51999999999998 84.333 169.666 85.18599999999999 169.666 85.18599999999999 L 169.666 116.75899999999999 C 169.666 117.61199999999998 170.519 118.46599999999998 171.373 118.46599999999998 L 339.48 118.46599999999998 C 340.333 118.46599999999998 340.333 117.61299999999999 340.333 117.61299999999999 L 340.333 85.187 C 340.333 85.187 340.333 84.334 339.48 84.334 L 171.373 84.334 z" stroke-linecap="round" />
</g>
		<g transform="matrix(1.56 0 0 1.56 -0.26 239.92)"  >
<path style="stroke: none; stroke-width: 1; stroke-dasharray: none; stroke-linecap: butt; stroke-dashoffset: 0; stroke-linejoin: miter; stroke-miterlimit: 4; fill: rgb(0,0,0); fill-rule: nonzero; opacity: 1;" vector-effect="non-scaling-stroke"  transform=" translate(-255, -408.6)" d="M 339.48 442.733 L 171.373 442.733 C 161.13299999999998 442.733 152.6 434.2 152.6 424.813 L 152.6 393.24 C 152.6 383 161.13299999999998 374.467 171.373 374.467 L 339.48 374.467 C 349.72 374.467 357.40000000000003 383 357.40000000000003 392.387 L 357.40000000000003 423.96 C 357.4 434.2 349.72 442.733 339.48 442.733 z M 171.373 391.533 C 170.51999999999998 391.533 169.666 392.386 169.666 392.386 L 169.666 423.959 C 169.666 424.812 170.519 425.666 171.373 425.666 L 339.48 425.666 C 340.333 425.666 340.333 424.813 340.333 424.813 L 340.333 393.24 C 340.333 392.387 339.48 392.387 339.48 392.387 L 171.373 392.387 L 171.373 391.533 z" stroke-linecap="round" />
</g>
</g>
</g>
<g transform="matrix(0.46 0 0 1.31 978.5 539.22)"  >
<g style="" vector-effect="non-scaling-stroke"   >
		<g transform="matrix(1.56 0 0 1.56 -0.24 239.94)"  >
<path style="stroke: none; stroke-width: 1; stroke-dasharray: none; stroke-linecap: butt; stroke-dashoffset: 0; stroke-linejoin: miter; stroke-miterlimit: 4; fill: rgb(255,225,0); fill-rule: nonzero; opacity: 1;" vector-effect="non-scaling-stroke"  transform=" translate(-255, -408.6)" d="M 339.48 434.2 L 171.373 434.2 C 165.39999999999998 434.2 161.13299999999998 429.933 161.13299999999998 424.813 L 161.13299999999998 393.24 C 161.13299999999998 387.267 165.39999999999998 383 171.373 383 L 339.48 383 C 344.6 383 348.867 387.267 348.867 392.387 L 348.867 423.96 C 348.867 429.933 344.6 434.2 339.48 434.2" stroke-linecap="round" />
</g>
		<g transform="matrix(1.56 0 0 1.56 -0.15 333.25)"  >
<path style="stroke: none; stroke-width: 1; stroke-dasharray: none; stroke-linecap: butt; stroke-dashoffset: 0; stroke-linejoin: miter; stroke-miterlimit: 4; fill: rgb(255,225,0); fill-rule: nonzero; opacity: 1;" vector-effect="non-scaling-stroke"  transform=" translate(-255, -468.33)" d="M 305.347 502.467 L 205.50699999999998 502.467 C 199.53399999999996 502.467 195.26699999999997 498.2 195.26699999999997 493.08 L 195.26699999999997 434.2 L 314.734 434.2 L 314.734 493.08 C 314.733 498.2 310.467 502.467 305.347 502.467" stroke-linecap="round" />
</g>
		<g transform="matrix(1.56 0 0 1.56 -0.15 -0.32)"  >
<polygon style="stroke: none; stroke-width: 1; stroke-dasharray: none; stroke-linecap: butt; stroke-dashoffset: 0; stroke-linejoin: miter; stroke-miterlimit: 4; fill: rgb(255,225,0); fill-rule: nonzero; opacity: 1;" vector-effect="non-scaling-stroke"  points="-59.73,128 59.73,128 59.73,-128 -59.73,-128 " />
</g>
		<g transform="matrix(1.56 0 0 1.56 73.3 -0.32)"  >
<polygon style="stroke: none; stroke-width: 1; stroke-dasharray: none; stroke-linecap: butt; stroke-dashoffset: 0; stroke-linejoin: miter; stroke-miterlimit: 4; fill: rgb(255,168,0); fill-rule: nonzero; opacity: 1;" vector-effect="non-scaling-stroke"  points="-12.8,128 12.8,128 12.8,-128 -12.8,-128 " />
</g>
		<g transform="matrix(1.56 0 0 1.56 -73.36 -0.32)"  >
<polygon style="stroke: none; stroke-width: 1; stroke-dasharray: none; stroke-linecap: butt; stroke-dashoffset: 0; stroke-linejoin: miter; stroke-miterlimit: 4; fill: rgb(255,255,255); fill-rule: nonzero; opacity: 1;" vector-effect="non-scaling-stroke"  points="-12.8,128 12.8,128 12.8,-128 -12.8,-128 " />
</g>
		<g transform="matrix(1.56 0 0 1.56 -0.15 -333.42)"  >
<path style="stroke: none; stroke-width: 1; stroke-dasharray: none; stroke-linecap: butt; stroke-dashoffset: 0; stroke-linejoin: miter; stroke-miterlimit: 4; fill: rgb(255,225,0); fill-rule: nonzero; opacity: 1;" vector-effect="non-scaling-stroke"  transform=" translate(-255, -41.67)" d="M 314.733 75.8 L 195.267 75.8 L 195.267 16.92 C 195.267 11.8 199.534 7.533000000000001 205.507 7.533000000000001 L 305.347 7.533000000000001 C 310.467 7.533000000000001 314.734 11.8 314.734 16.92 L 314.734 75.8 z" stroke-linecap="round" />
</g>
		<g transform="matrix(1.56 0 0 1.56 65.96 -333.42)"  >
<path style="stroke: none; stroke-width: 1; stroke-dasharray: none; stroke-linecap: butt; stroke-dashoffset: 0; stroke-linejoin: miter; stroke-miterlimit: 4; fill: rgb(255,168,0); fill-rule: nonzero; opacity: 1;" vector-effect="non-scaling-stroke"  transform=" translate(-297.24, -41.67)" d="M 305.347 7.533 L 279.74699999999996 7.533 C 284.86699999999996 7.533 289.13399999999996 11.8 289.13399999999996 16.92 L 289.13399999999996 75.8 L 314.734 75.8 L 314.734 16.92 C 314.733 11.8 310.467 7.533 305.347 7.533" stroke-linecap="round" />
</g>
		<g transform="matrix(1.56 0 0 1.56 -65.37 -333.42)"  >
<path style="stroke: none; stroke-width: 1; stroke-dasharray: none; stroke-linecap: butt; stroke-dashoffset: 0; stroke-linejoin: miter; stroke-miterlimit: 4; fill: rgb(255,255,255); fill-rule: nonzero; opacity: 1;" vector-effect="non-scaling-stroke"  transform=" translate(-213.19, -41.67)" d="M 205.507 7.533 L 231.107 7.533 C 225.134 7.533 220.867 11.8 220.867 16.92 L 220.867 75.8 L 195.267 75.8 L 195.267 16.92 C 195.267 11.8 199.533 7.533 205.507 7.533" stroke-linecap="round" />
</g>
		<g transform="matrix(1.56 0 0 1.56 65.96 333.25)"  >
<path style="stroke: none; stroke-width: 1; stroke-dasharray: none; stroke-linecap: butt; stroke-dashoffset: 0; stroke-linejoin: miter; stroke-miterlimit: 4; fill: rgb(255,168,0); fill-rule: nonzero; opacity: 1;" vector-effect="non-scaling-stroke"  transform=" translate(-297.24, -468.33)" d="M 305.347 502.467 L 279.74699999999996 502.467 C 284.86699999999996 502.467 289.13399999999996 498.2 289.13399999999996 493.08 L 289.13399999999996 434.2 L 314.734 434.2 L 314.734 493.08 C 314.733 498.2 310.467 502.467 305.347 502.467" stroke-linecap="round" />
</g>
		<g transform="matrix(1.56 0 0 1.56 -65.37 333.25)"  >
<path style="stroke: none; stroke-width: 1; stroke-dasharray: none; stroke-linecap: butt; stroke-dashoffset: 0; stroke-linejoin: miter; stroke-miterlimit: 4; fill: rgb(255,255,255); fill-rule: nonzero; opacity: 1;" vector-effect="non-scaling-stroke"  transform=" translate(-213.19, -468.33)" d="M 205.507 502.467 L 231.107 502.467 C 225.134 502.467 220.867 498.2 220.867 493.08 L 220.867 434.2 L 195.267 434.2 L 195.267 493.08 C 195.267 498.2 199.533 502.467 205.507 502.467" stroke-linecap="round" />
</g>
		<g transform="matrix(1.56 0 0 1.56 -0.24 -240.06)"  >
<path style="stroke: none; stroke-width: 1; stroke-dasharray: none; stroke-linecap: butt; stroke-dashoffset: 0; stroke-linejoin: miter; stroke-miterlimit: 4; fill: rgb(255,225,0); fill-rule: nonzero; opacity: 1;" vector-effect="non-scaling-stroke"  transform=" translate(-255, -101.4)" d="M 339.48 127 L 171.373 127 C 165.39999999999998 127 161.13299999999998 122.733 161.13299999999998 117.613 L 161.13299999999998 85.187 C 161.13299999999998 80.067 165.39999999999998 75.8 171.373 75.8 L 339.48 75.8 C 344.6 75.8 348.867 80.067 348.867 85.187 L 348.867 116.75999999999999 C 348.867 122.733 344.6 127 339.48 127" stroke-linecap="round" />
</g>
		<g transform="matrix(1.56 0 0 1.56 119.29 -240.73)"  >
<path style="stroke: none; stroke-width: 1; stroke-dasharray: none; stroke-linecap: butt; stroke-dashoffset: 0; stroke-linejoin: miter; stroke-miterlimit: 4; fill: rgb(255,168,0); fill-rule: nonzero; opacity: 1;" vector-effect="non-scaling-stroke"  transform=" translate(-331.37, -100.97)" d="M 339.48 75.8 L 313.88 75.8 C 319 75.8 323.267 80.067 323.267 85.187 L 323.267 116.75999999999999 C 323.267 121.88 319 126.14699999999999 313.88 126.14699999999999 L 339.48 126.14699999999999 C 344.6 126.14699999999999 348.867 121.88 348.867 116.75999999999999 L 348.867 85.187 C 348.867 80.067 344.6 75.8 339.48 75.8" stroke-linecap="round" />
</g>
		<g transform="matrix(1.56 0 0 1.56 -118.71 -240.06)"  >
<path style="stroke: none; stroke-width: 1; stroke-dasharray: none; stroke-linecap: butt; stroke-dashoffset: 0; stroke-linejoin: miter; stroke-miterlimit: 4; fill: rgb(255,255,255); fill-rule: nonzero; opacity: 1;" vector-effect="non-scaling-stroke"  transform=" translate(-179.05, -101.4)" d="M 171.373 75.8 L 196.97299999999998 75.8 C 190.99999999999997 75.8 186.73299999999998 80.067 186.73299999999998 85.187 L 186.73299999999998 116.75999999999999 C 186.73299999999998 122.73299999999999 190.99999999999997 126.99999999999999 196.97299999999998 126.99999999999999 L 171.373 126.99999999999999 C 165.39999999999998 126.99999999999999 161.13299999999998 122.73299999999999 161.13299999999998 117.61299999999999 L 161.13299999999998 85.187 C 161.133 80.067 165.4 75.8 171.373 75.8" stroke-linecap="round" />
</g>
		<g transform="matrix(1.56 0 0 1.56 119.29 239.27)"  >
<path style="stroke: none; stroke-width: 1; stroke-dasharray: none; stroke-linecap: butt; stroke-dashoffset: 0; stroke-linejoin: miter; stroke-miterlimit: 4; fill: rgb(255,168,0); fill-rule: nonzero; opacity: 1;" vector-effect="non-scaling-stroke"  transform=" translate(-331.37, -408.17)" d="M 339.48 383 L 313.88 383 C 319 383 323.267 387.267 323.267 392.387 L 323.267 423.96 C 323.267 429.08 319 433.347 313.88 433.347 L 339.48 433.347 C 344.6 433.347 348.867 429.08 348.867 423.96 L 348.867 392.387 C 348.867 387.267 344.6 383 339.48 383" stroke-linecap="round" />
</g>
		<g transform="matrix(1.56 0 0 1.56 -118.71 239.94)"  >
<path style="stroke: none; stroke-width: 1; stroke-dasharray: none; stroke-linecap: butt; stroke-dashoffset: 0; stroke-linejoin: miter; stroke-miterlimit: 4; fill: rgb(255,255,255); fill-rule: nonzero; opacity: 1;" vector-effect="non-scaling-stroke"  transform=" translate(-179.05, -408.6)" d="M 171.373 383 L 196.97299999999998 383 C 190.99999999999997 383 186.73299999999998 387.267 186.73299999999998 392.387 L 186.73299999999998 423.96 C 186.73299999999998 429.933 190.99999999999997 434.2 196.97299999999998 434.2 L 171.373 434.2 C 165.39999999999998 434.2 161.13299999999998 429.933 161.13299999999998 424.813 L 161.13299999999998 393.24 C 161.133 387.267 165.4 383 171.373 383" stroke-linecap="round" />
</g>
		<g transform="matrix(1.56 0 0 1.56 -0.17 333.23)"  >
<path style="stroke: none; stroke-width: 1; stroke-dasharray: none; stroke-linecap: butt; stroke-dashoffset: 0; stroke-linejoin: miter; stroke-miterlimit: 4; fill: rgb(0,0,0); fill-rule: nonzero; opacity: 1;" vector-effect="non-scaling-stroke"  transform=" translate(-255, -468.33)" d="M 305.347 511 L 205.50699999999998 511 C 195.26699999999997 511 186.73399999999998 502.467 186.73399999999998 493.08 L 186.73399999999998 425.667 L 323.26699999999994 425.667 L 323.26699999999994 493.08 C 323.267 502.467 315.587 511 305.347 511 z M 203.8 442.733 L 203.8 493.08 C 203.8 493.08 204.65300000000002 493.933 205.507 493.933 L 305.347 493.933 C 306.2 493.933 306.2 493.08 306.2 493.08 L 306.2 442.733 L 203.8 442.733 z" stroke-linecap="round" />
</g>
		<g transform="matrix(1.56 0 0 1.56 -0.17 -0.34)"  >
<path style="stroke: none; stroke-width: 1; stroke-dasharray: none; stroke-linecap: butt; stroke-dashoffset: 0; stroke-linejoin: miter; stroke-miterlimit: 4; fill: rgb(0,0,0); fill-rule: nonzero; opacity: 1;" vector-effect="non-scaling-stroke"  transform=" translate(-255, -255)" d="M 323.267 391.533 L 186.733 391.533 L 186.733 118.467 L 323.26599999999996 118.467 L 323.26599999999996 391.533 z M 203.8 374.467 L 306.20000000000005 374.467 L 306.20000000000005 135.533 L 203.8 135.533 L 203.8 374.467 z" stroke-linecap="round" />
</g>
		<g transform="matrix(1.56 0 0 1.56 -0.17 -333.44)"  >
<path style="stroke: none; stroke-width: 1; stroke-dasharray: none; stroke-linecap: butt; stroke-dashoffset: 0; stroke-linejoin: miter; stroke-miterlimit: 4; fill: rgb(0,0,0); fill-rule: nonzero; opacity: 1;" vector-effect="non-scaling-stroke"  transform=" translate(-255, -41.67)" d="M 323.267 84.333 L 186.733 84.333 L 186.733 16.92 C 186.733 7.533000000000001 195.266 -1 205.506 -1 L 305.346 -1 C 315.586 -1 323.266 7.5329999999999995 323.266 16.92 L 323.266 84.333 z M 203.8 67.267 L 306.20000000000005 67.267 L 306.20000000000005 16.92 C 306.20000000000005 16.92 306.20000000000005 16.067 305.34700000000004 16.067 L 205.50700000000003 16.067 C 204.65400000000002 16.067 203.80000000000004 16.92 203.80000000000004 16.92 L 203.80000000000004 67.267 z" stroke-linecap="round" />
</g>
		<g transform="matrix(1.56 0 0 1.56 -0.26 -240.08)"  >
<path style="stroke: none; stroke-width: 1; stroke-dasharray: none; stroke-linecap: butt; stroke-dashoffset: 0; stroke-linejoin: miter; stroke-miterlimit: 4; fill: rgb(0,0,0); fill-rule: nonzero; opacity: 1;" vector-effect="non-scaling-stroke"  transform=" translate(-255, -101.4)" d="M 339.48 135.533 L 171.373 135.533 C 161.13299999999998 135.533 152.6 126.99999999999999 152.6 117.61299999999999 L 152.6 85.187 C 152.6 75.8 161.13299999999998 67.267 171.373 67.267 L 339.48 67.267 C 349.72 67.267 357.40000000000003 75.8 357.40000000000003 85.187 L 357.40000000000003 116.75999999999999 C 357.4 127 349.72 135.533 339.48 135.533 z M 171.373 84.333 C 170.51999999999998 84.333 169.666 85.18599999999999 169.666 85.18599999999999 L 169.666 116.75899999999999 C 169.666 117.61199999999998 170.519 118.46599999999998 171.373 118.46599999999998 L 339.48 118.46599999999998 C 340.333 118.46599999999998 340.333 117.61299999999999 340.333 117.61299999999999 L 340.333 85.187 C 340.333 85.187 340.333 84.334 339.48 84.334 L 171.373 84.334 z" stroke-linecap="round" />
</g>
		<g transform="matrix(1.56 0 0 1.56 -0.26 239.92)"  >
<path style="stroke: none; stroke-width: 1; stroke-dasharray: none; stroke-linecap: butt; stroke-dashoffset: 0; stroke-linejoin: miter; stroke-miterlimit: 4; fill: rgb(0,0,0); fill-rule: nonzero; opacity: 1;" vector-effect="non-scaling-stroke"  transform=" translate(-255, -408.6)" d="M 339.48 442.733 L 171.373 442.733 C 161.13299999999998 442.733 152.6 434.2 152.6 424.813 L 152.6 393.24 C 152.6 383 161.13299999999998 374.467 171.373 374.467 L 339.48 374.467 C 349.72 374.467 357.40000000000003 383 357.40000000000003 392.387 L 357.40000000000003 423.96 C 357.4 434.2 349.72 442.733 339.48 442.733 z M 171.373 391.533 C 170.51999999999998 391.533 169.666 392.386 169.666 392.386 L 169.666 423.959 C 169.666 424.812 170.519 425.666 171.373 425.666 L 339.48 425.666 C 340.333 425.666 340.333 424.813 340.333 424.813 L 340.333 393.24 C 340.333 392.387 339.48 392.387 339.48 392.387 L 171.373 392.387 L 171.373 391.533 z" stroke-linecap="round" />
</g>
</g>
</g>
</svg>